<?xml version="1.0" encoding="UTF-8"?>
<svg id="Layer_1" data-name="Layer 1" xmlns="http://www.w3.org/2000/svg" xmlns:xlink="http://www.w3.org/1999/xlink" viewBox="0 0 512 322.96">
  <defs>
    <style>
      .cls-1 {
        filter: url(#drop-shadow-22);
      }

      .cls-1, .cls-2, .cls-3, .cls-4, .cls-5, .cls-6, .cls-7, .cls-8, .cls-9, .cls-10, .cls-11, .cls-12, .cls-13 {
        fill: #f03d56;
      }

      .cls-2 {
        filter: url(#drop-shadow-27);
      }

      .cls-3 {
        filter: url(#drop-shadow-24);
      }

      .cls-4 {
        filter: url(#drop-shadow-32);
      }

      .cls-5 {
        filter: url(#drop-shadow-25);
      }

      .cls-6 {
        filter: url(#drop-shadow-30);
      }

      .cls-7 {
        filter: url(#drop-shadow-26);
      }

      .cls-8 {
        filter: url(#drop-shadow-29);
      }

      .cls-9 {
        filter: url(#drop-shadow-23);
      }

      .cls-10 {
        filter: url(#drop-shadow-31);
      }

      .cls-14 {
        filter: url(#drop-shadow-35);
      }

      .cls-12 {
        filter: url(#drop-shadow-28);
      }

      .cls-13 {
        filter: url(#drop-shadow-33);
      }
    </style>
    <filter id="drop-shadow-22" x="137.16" y="157.79" width="38.64" height="44.4" filterUnits="userSpaceOnUse">
      <feOffset dx="7" dy="7"/>
      <feGaussianBlur result="blur" stdDeviation="5"/>
      <feFlood flood-color="#000" flood-opacity=".75"/>
      <feComposite in2="blur" operator="in"/>
      <feComposite in="SourceGraphic"/>
    </filter>
    <filter id="drop-shadow-23" x="212.04" y="167.63" width="30.48" height="30.48" filterUnits="userSpaceOnUse">
      <feOffset dx="7" dy="7"/>
      <feGaussianBlur result="blur-2" stdDeviation="5"/>
      <feFlood flood-color="#000" flood-opacity=".75"/>
      <feComposite in2="blur-2" operator="in"/>
      <feComposite in="SourceGraphic"/>
    </filter>
    <filter id="drop-shadow-24" x="173.4" y="109.07" width="30.72" height="30.72" filterUnits="userSpaceOnUse">
      <feOffset dx="7" dy="7"/>
      <feGaussianBlur result="blur-3" stdDeviation="5"/>
      <feFlood flood-color="#000" flood-opacity=".75"/>
      <feComposite in2="blur-3" operator="in"/>
      <feComposite in="SourceGraphic"/>
    </filter>
    <filter id="drop-shadow-25" x="107.4" y="79.79" width="67.44" height="118.08" filterUnits="userSpaceOnUse">
      <feOffset dx="7" dy="7"/>
      <feGaussianBlur result="blur-4" stdDeviation="5"/>
      <feFlood flood-color="#000" flood-opacity=".75"/>
      <feComposite in2="blur-4" operator="in"/>
      <feComposite in="SourceGraphic"/>
    </filter>
    <filter id="drop-shadow-26" x="129.24" y="108.35" width="30.24" height="30.24" filterUnits="userSpaceOnUse">
      <feOffset dx="7" dy="7"/>
      <feGaussianBlur result="blur-5" stdDeviation="5"/>
      <feFlood flood-color="#000" flood-opacity=".75"/>
      <feComposite in2="blur-5" operator="in"/>
      <feComposite in="SourceGraphic"/>
    </filter>
    <filter id="drop-shadow-27" x="90.36" y="82.91" width="44.88" height="48" filterUnits="userSpaceOnUse">
      <feOffset dx="7" dy="7"/>
      <feGaussianBlur result="blur-6" stdDeviation="5"/>
      <feFlood flood-color="#000" flood-opacity=".75"/>
      <feComposite in2="blur-6" operator="in"/>
      <feComposite in="SourceGraphic"/>
    </filter>
    <filter id="drop-shadow-28" x="105.48" y="84.11" width="41.76" height="46.8" filterUnits="userSpaceOnUse">
      <feOffset dx="7" dy="7"/>
      <feGaussianBlur result="blur-7" stdDeviation="5"/>
      <feFlood flood-color="#000" flood-opacity=".75"/>
      <feComposite in2="blur-7" operator="in"/>
      <feComposite in="SourceGraphic"/>
    </filter>
    <filter id="drop-shadow-29" x="174.12" y="136.67" width="30.96" height="30.72" filterUnits="userSpaceOnUse">
      <feOffset dx="7" dy="7"/>
      <feGaussianBlur result="blur-8" stdDeviation="5"/>
      <feFlood flood-color="#000" flood-opacity=".75"/>
      <feComposite in2="blur-8" operator="in"/>
      <feComposite in="SourceGraphic"/>
    </filter>
    <filter id="drop-shadow-30" x="173.4" y="136.19" width="38.16" height="34.8" filterUnits="userSpaceOnUse">
      <feOffset dx="7" dy="7"/>
      <feGaussianBlur result="blur-9" stdDeviation="5"/>
      <feFlood flood-color="#000" flood-opacity=".75"/>
      <feComposite in2="blur-9" operator="in"/>
      <feComposite in="SourceGraphic"/>
    </filter>
    <filter id="drop-shadow-31" x="129.24" y="108.35" width="30.24" height="30.24" filterUnits="userSpaceOnUse">
      <feOffset dx="7" dy="7"/>
      <feGaussianBlur result="blur-10" stdDeviation="5"/>
      <feFlood flood-color="#000" flood-opacity=".75"/>
      <feComposite in2="blur-10" operator="in"/>
      <feComposite in="SourceGraphic"/>
    </filter>
    <filter id="drop-shadow-32" x="129.24" y="108.35" width="30.24" height="30.24" filterUnits="userSpaceOnUse">
      <feOffset dx="7" dy="7"/>
      <feGaussianBlur result="blur-11" stdDeviation="5"/>
      <feFlood flood-color="#000" flood-opacity=".75"/>
      <feComposite in2="blur-11" operator="in"/>
      <feComposite in="SourceGraphic"/>
    </filter>
    <filter id="drop-shadow-33" x="117" y="37.55" width="133.68" height="162" filterUnits="userSpaceOnUse">
      <feOffset dx="7" dy="7"/>
      <feGaussianBlur result="blur-12" stdDeviation="5"/>
      <feFlood flood-color="#000" flood-opacity=".75"/>
      <feComposite in2="blur-12" operator="in"/>
      <feComposite in="SourceGraphic"/>
    </filter>
    <filter id="drop-shadow-35" x="121.32" y="152.27" width="289.2" height="124.8" filterUnits="userSpaceOnUse">
      <feOffset dx="7" dy="7"/>
      <feGaussianBlur result="blur-13" stdDeviation="5"/>
      <feFlood flood-color="#000" flood-opacity=".75"/>
      <feComposite in2="blur-13" operator="in"/>
      <feComposite in="SourceGraphic"/>
    </filter>
  </defs>
  <path class="cls-1" d="M152.82,171.88s-.1-.01-.17-.06c.08.13.13.29.13.46.06,1.61-7.87,11.77-7.41,6.12.81-1.65,3.19-2.38,3.61-4.28-.13-1.03-1.42-1.61-1.48-2.73-.15-1.15.21-2.46.67-3.54.68-1.64,3.41-2.73,4.81-1.49l.11.12c.18.18.29.4.33.62.09.47-.13.94-.68,1.03-.4.06-.74-.05-1.09-.08.21.11.41.27.72.28.3.03.72-.14,1.03-.23l.08.04c.59,1.05.18,2.96-.67,3.75Z"/>
  <path class="cls-9" d="M220.42,175.95c0,.08-.06.14-.13.14-.08,0-.13-.06-.13-.14,0-.07.05-.13.13-.13.07,0,.13.06.13.13Z"/>
  <path class="cls-3" d="M182.02,117.29c-.05.12-.19.23-.3.28-.07.04-.19-.03-.27-.01.17-.14.35-.27.57-.27Z"/>
  <path class="cls-5" d="M130.26,136.43c-1.97-2.36-4.96-4-7.52-5.78-1-.73-1.72-1.52-2.59-2.33-1.16-1.11-2.58-1.94-3.14-2.8-1.93-3.59-2.14-8.91.02-12.57.48-1.15,1.16-2.06,2.28-2.23,1.56-.17,3.76.76,3.68,2.49-.15,1.25-2.32,1.95-2.63,3.42-.52,2.12,1.48,5.44,3.67,4.99.14-.1.1-.26-.06-.48-.32-.42-.83-.85-1.01-1.43-.86-3.91,2.95-5.08.76-9.37-.31-1.02.27-1.98.74-2.87,2.26-4.14,2.28-10.5.05-14.1-1.33-1.79-.89-4.61,1.44-5.25,1.6-.45,3.75-.16,5.31.62,2.32,1.49,1.05,6.14,1.18,8.51-.12,2.62-.66,7.17-.69,10.25.62,3.55,4.25,9.85.66,12.66-.91.45-2.17.35-3.1.67-1.17.38-.7,1.04.36,1.22,1.47.21,3.02-.3,4.29.49,1.91,1.35,4.66,3.31,5.04,5.6.42,2.71.38,4.89,1.51,7.55,2.58,6.89,5.81,14.01,7.91,18.18,1.23,2.54,3.65,7.24,4.34,8.83.08.26.11.45-.04.64-.36.45-2.62.42-3.69,1.13-2.15,1.13-3.5,3.48-3.96,5.88-.31,1.36-.01,2.87-.43,4-1.01,2.42-3.85,1.58-5.04-.26-.38-.49-.54-.81-.64-1.35-.5-3.1-2.69-16.9-3.55-22.32-.38-2.37-.55-3.87-1.49-6.36-1.17-2.46-1.92-5.26-3.53-7.48l-.12-.15Z"/>
  <path class="cls-7" d="M137.39,116.5s-.01.01-.01.01h0s.01-.01.01-.01Z"/>
  <path class="cls-2" d="M112.55,106.1c-.24.57-.96.53-2.23.87l-3.76.87-2.8.64c-1.34.26-1.84.59-2.79.28-1.49-.7-1.61-2.76-1.97-4.22-.86-4.26-.52-9.31,1.97-12.96.59-.63,1.47-.57,2.25-.38,2.71.66,5.4,1.38,8.08,2.19,1.14.3,1.76,1.33,1.73,2.52-.04,3.36.03,6.79-.43,10.08l-.05.11Z"/>
  <path class="cls-12" d="M121.96,108.45c-2.01.9-6.13-.33-7.94-1.3-.65-.41-.43-1.29-.34-2.02.62-3.31.87-6.27.25-9.58-.34-1.95,1.49-2.94,3.14-2.97,1.96.11,4.63-1.09,5.98.7,3.15,3.16,2.76,12.8-.95,15.09l-.14.07Z"/>
  <path class="cls-8" d="M182.21,144.8c.2,0,.41-.07.6.09.16.14.07.23.03.4-.12,0-.25.03-.4-.04-.17-.05-.39-.25-.23-.46Z"/>
  <path class="cls-6" d="M188.91,148.89s0-.09,0-.14c-.14.21-.4.26-.9.04-.01-.02-.04-.04-.06-.06.01.04,0,.07,0,.11l-.02.02c-.16-.03-4.81-1.77-4.38-2.08-.25-.05-.57-.1-.81-.19l.08.08c-.24,0-.6.09-.89,0-.14-.04-.45-.18-.26-.45l.59-.06s.08.07.12.11c-.01-.11.04-.23.17-.39.15-.21.18-.48.36-.53.16.03.3.06.42.08.23.04.42.07.62.09.3.03.64.04,1.16.01.2,0,.38.01.55,0,.28,0,.52-.07.73-.29.04-.02.06-.05.08-.08.19-.12.53-.15.85-.19-.03-.01-.04-.05-.03-.11.13-.65,1.44-.98,1.79-.18.21.47.23,1.06-.08,1.5h0c.12.4.09.9.08,1.25h0c.39-.04.38.49.4.78.04.52-.06.72-.58.69Z"/>
  <path class="cls-10" d="M137.39,116.5s-.01.01-.01.01h0s.01-.01.01-.01Z"/>
  <path class="cls-4" d="M137.39,116.5s-.01.01-.01.01h0s.01-.01.01-.01Z"/>
  <path class="cls-13" d="M224.46,154.41c-1.52-.59-1.78-2.5-.96-3.84l.08-.14c7.02-9.07,7-13.48-2.7-19.97-1.08-1.07-.96-2.46-1.44-3.65-1.09-1.66-1.69-3.5-.95-5.54,4.06-8.34,10.1-8.66,7.26-20.48-.91-3.22-2.78-5.6-4.89-7.88-3.14-3.59-8.73-5.59-11.09-9.97-.31-.59-1.02-1.73-1.55-.88-.69,1.64-.19,4.57-1.5,5.95-3.41,2.46-8.9,2.79-12.89,1.44-2.34-.72-11.7-9.98-5.08-9.98.98.36-.62,1.42-.29,2.41,2.4,4.57,7.57,8.2,12.69,7.48,5.8-2.3,6.17-1.58,5.54-8.4-.33-7.12-8.52-7.51-13.71-6.32-1.71.21-3.35,1.76-4.88,1.66-1.01-1.16,7.02-3.48,8.01-3.55,3.83-.98,6.77-.33,9.9,1.56,2.51.72,1.65-3.92,1.85-5.26-.17-3.65-1.33-7.99-4.57-9.69-1.35-.5-3.73-.06-4.33,1.38.08,1.01.14,1.09-.92,1.21-1.25.02-1.58,1.12-2.77,1.45-.89.22-.68.59-.72,1.25-.1.49-.63.62-1.08.86-3.77,1.4-5.04,5.73-6.92,9.18-1.14,1.58-1.68-.18-1.19-1.25.64-1.66,1.54-3,2.34-4.43.63-1.17,2.43-2.68,3.36-3.98.61-1.05,1.14-1.91,2.17-2.61.89-.57,1.05-1.43,1.1-2.37.09-.7.69-.06,1.39-.36.23-.06.46-.18.71-.36.87-1.08,4.06-2.96,2.44-3.99-2.4-.85-5.38,1.05-7.03,2.75-.82.8-1.92,2.78-1.81,1.39.35-2.56,2.48-4.08,4.06-5.76.77-2.06-4.58-1.81-5.71-2.51-.98-.3-1.89-.82-2.75-1.37-8.92-6.32-18.83-5.39-26.7,2.56-1.64,1.56-2.63,3.32-3.92,5.17-1.39,1.75-3.3,2.99-4.61,4.77-2.68,3.67-4.42,8.34-5.36,12.82-.7,3.92,1.17,7.66,1.17,11.6-.21,4.24-.69,8.2-2.05,11.67-2.09,4.98-5.08-7.94-6.09-9.22-1.88-4.08-5.81-5.98-10.2-6.06-1.28-.16-3.6.38-2.4,1.98,1.52,1.81,6.34,1.04,7.53,4.04,1.1,3.54.3,7.7.45,11.61.1,2.85-1,5.4-.1,8.16,1.45,3.92,3.05,7.31,3.95,11.32,1.18,2.17,3.4,2.97,5.14,4.81,1.28,1.31,1.96,2.89,2.66,4.57,2,5.21,4.42,10.53,6.98,15.61,3.77,6.44,10.2,20.4,18.88,13.65,3.21-3.5,4.89-8.69,8-12.04.63-.62,2.24-.71,2.55-1.55-.1-.39-.51-.69-.97-1t-.01,0c-.34-.21-.7-.42-.98-.64-.08-.06-.16-.13-.23-.21-1.33-.99-2.19-2.26-2.68-3.67-.08-.22-.14-.45-.2-.67-.41-1.61-.4-3.37-.08-5.11.01-.09.04-.19.06-.29.35-1.79.99-3.54,1.76-5.07,4.27-9.13-3.52-2.52-6.29.13-2.22,2.02-3.76,4.7-4.83,7.85-.73,2.44-2.12,6.16-4.58,2.8-1.85-2.53-3.98-5.3-5.69-7.9-2.16-3.58-4.27-6.82-5.69-10.81-2.78-5.4-5.12-10.75-6.81-16.16-.91-1.95.73-2.99,1.73-4.99.18-.3.96-2.32,1.24-1.34.48.91-1.08,6.07.61,5.71,1.87-.83,3.92-2.31,4.64-4.41,1.05-2.77-.75-5.59-.51-8.35.93-1.64,3.32,5.25,3.21,6.24.21,2.65-.14,5.3.31,7.86.41,2.39,1.54,5.06,2.1,7.36,1.02,4.13,2.17-2.8,1.96-4.05.09-2.27-.92-3.79-.79-5.96.21-.39.54.14.75.45,1.24,2.61,2.71,4.98,3.69,7.41.45,1.54.46,3.49.11,5.1-.76,2.27-1.12,4.16,1.45,1.69,4.67-5.47,4.04-7.54,1.96-13.94.23-.57,2.47,2.68,2.96,3.72.47.69.81,2.81,1.13,2.87.22.04.52-.5.79-1.31.36-1.12.58-2.29.59-3.36.15-4.33,1.03.11,1.35,1.59.41,1.6,1.22,3.17,1.59,4.76.28,2.22-.42,5.13-.6,7.52-.02.88-1.13,2.82.12,2.99,2.52-.47,4.31-2.63,6.02-4.35.84-.4,1.13,1.61,1.31,2.14,1.54,8.09-8.61,12.77.46,20.14,1.99,1.87,5.29,2.63,7.6,3.48,3.44,2.44,1.13,8.85,5.41,11.32,10.9,6.97,5.74,13.67,14.15,19.22,2.1,1.39,4.98,3.55,7.77,3.29,1.42-.18,2.75-1.54,2.24-1.84-.36-.29-1.83-.01-2.99-.23-4.78-1.58-2.49-8.91.32-11.63,2.29-2.39,4.53-3.83,7.6-5.14,1.32-.45,3.33-2.11,3.41-3.35-.13-.95-2.23-.08-3.53-.76ZM190.32,80.68l.45-.11.69-.09.54-.06.41-.04s.46-.09.46-.09c.51-.16,0-.52,0-.52l-.28-.33c-.38-.55.09-.79.09-.79l.28-.13.28-.07.48-.09.79-.1.38-.04.45-.08.18-.03.29-.08.72-.33,1.01-.54,1-.54.74-.38.5-.21.39-.13.21-.06.19-.02h.14l.11.02v.02s0,.08,0,.08l-.07.11-.25.28-.48.43-1.09.84-.84.56-.26.16-.19.11-.21.11-.15.07-.13.06-.11.04-.12.04h-.07s-.15.05-.15.05l-.17.04-.19.06-1,.34-.72.35c-.65.4.2.52.2.52l.96.08,1.1.02h2.1s.45.04.45.04l.49.06.19.04.08.04.06.04.03.04v.04s-.03.04-.03.04l-.06.06-.17.04-.92.13-.94.09-1.08.08-1.3.09-1.16.11-.16.06-.06.08-.02.08.06.11.09.11.11.12.14.13.36.26.7.45.58.37.67.45.57.35.6.4.35.25.25.21.16.15.08.13-2.01-.59-1.38-.58-1.15-.55-2.93-1.54-1.35-.79-.02-.06.09-.07ZM200.87,60.12c.33.01.59.16.89.29.04.47-.23.89-.68,1.01-.31-.11-.64-.33-.67-.71-.02-.33.18-.59.45-.59ZM198.52,63.21c.2,0,.4.22.61.24.05.29-.09.66-.01.94-.23.03-.5.07-.79.03-.21-.04-.42-.33-.4-.72.03-.38.35-.47.59-.49ZM196.55,56.96c.07.16,0,.33-.13.41-.15.08-.4.05-.42-.39.26-.33.5-.18.56-.02ZM137.47,116.24h0s0,0,0,0c0,0,0,0,0,0ZM185.54,87.31c-.45.29-2.48-.91-2.73-1.39-.37-.79.72-2.78.21-3.41-.96-.69-1.54,5.22-2.25,5.14-.47-.28.67-4.63-.37-4.01-.18.14-.5.42-.69.45-.59-.05.99-2.09,1.25-2.44.62-.76,1.27-1.4,1.71-1.31,1.55.99,1.96,3.73,2.24,5.45l.61,1.51ZM185.23,71.75l-.05.04c-.33-.08-1.13-2.08-1.41-2.34-.15-.18-.24-.17-.35,0-.94,2.46-1.85-.6-2.53-1.56-.44-.93-3.94-3.19-4.03-4.24.13-.35,3.51,1.76,4.11,2.68.59.94,2.73,3.46,1.75.65-.34-1.22-2.01-4.87-1.2-4.41.52.69,1.85,3.75,2.22,4.53.3.66.52.98.83.17.24-.42.98-5.08,1.34-5.2.47,2.02-.26,7.69-.68,9.69ZM173.37,53.17l.14-.11c1.77-1.54,4.27-1.22,6.45-1.27,3.7-.33,7.76,2.58,7.97,6.61-.25,1.17-1.15-1.52-1.5-1.9-.66-1.05-1.64-2.02-2.77-2.51-.84-.38-1.75-.52-2.66-.47-2.12.12-3.29,2-5.06,2.44-1.53.39-4.06-.53-4.29,1.86-.4,3.67,1.71,6.82,3.37,10.01,1.1,1.72,3.81,3.31,5.6,5.13.62.66,1.06,1.37.56,2.11-.71.89-2.15,1.29-1.83,2.7.03.55-.01,1.03-.51,1.33-.5.33-2.05,1.58-2.59,1.49-.29-.11.72-1.55.74-1.78.11-.37-3.96-.4-4.3-.69-.95-.74,3.26-1.53,3.57-1.95.17-.29-1.73-1.58-1.73-1.89-.18-.74,4.79.98,4.73.38-.31-1.19-1.56-2.16-2.26-3.2-2.16-2.81-5.38-4.38-6.84-7.65-1.64-3.73.04-8.43,3.21-10.64ZM172.69,88.12c-1.1,1.03-2.75,1.47-4.06.62-3.06-1.64-5.13-4.89-5.87-8.42-.4-1.81.51-3.61.96-5.3.38-2.32,1.71-4.82,3.93-5.9,1.03-.52,3.22-.31,3.99.29.11.13.04.26-.18.38-.72.33-1.72.49-2.41.96-2.12,1.32-1.85,4.28-3.65,6-1.47,1.48-1.52,2.36.21,3.7,1.15,1.05,1.95,2.19,3.08,3.16,1.19.98,2.77,1.41,4.29,1.18,2.61-.57,3.92-3.81,6.32-4.97,2.87-1.59,5.42-1.6,1.24.59-3.25,1.57-5.37,5.32-7.71,7.6l-.12.11ZM189.67,93.79l-.06.16c-1.02,3.04-3.63,4.76-6.39,5.87-1.2.71-2.59,1.42-3.91.65-.61-.31-1.08-.76-1.63-1.2-1.29-1.12-3.36-1.98-4.16-3.72-.59-2.29-.45-4.84.28-7.07.25-.72,1.05-2,1.02-.21-.02,1.9-.4,3.92.11,5.78.42,1.39,1.35,2.21,2.5,3.4.42.42.98.97,1.55,1.01.42.04.79-.23,1.13-.5,1.22-.97,2.47-1.74,3.82-2.42,5.17-2.14,4.65-3.82,4.2-8.85,0-.22-.01-.55.16-.62.42.03.62.79.73,1.2.38,1.88,1.44,4.55.65,6.51ZM219,175.55c.07,0,.12.06.12.13s-.05.14-.12.14c-.08,0-.13-.06-.13-.14s.05-.13.13-.13Z"/>
  <g class="cls-14">
    <path class="cls-11" d="M388.4,210.46c-.22-.43-2.62-1.19-2.62-1.19,0,0-1.55-.4-2.69-.6-1.13-.21-1.76-.27-1.76-.34s.07-2.36,0-2.63c-.07-.27-.36-1.21-.43-1.48-.06-.27-.99-1.42-.99-1.42,0,0-1.13-.8-1.55-.87-.43-.07-3.46,0-3.89,0s-4.03.94-4.03.94c0,0-2.61,1.42-2.97,1.55-.35.14-3.04,1.55-3.25,1.62-.21.07-3.08,3.03-3.08,3.03l-1.37,1.08h-1.27s1.55-1.08,1.9-1.82c.36-.74,1-1.35,1.21-1.95.21-.61,1.91-1.82,1.91-1.82,0,0,3.39-1.55,4.31-2.23.92-.67,1.48-.47,1.98-1.28.49-.81,1.34-.54,1.76-1.01.42-.47,1.33-2.22,1.33-2.22,0,0-.12-1.48-.06-2.56.07-1.08.07-1.55,0-2.36-.06-.81-.28-.67-.49-1.08-.21-.41-.91-.61-1.7-.94-.78-.34-1.06-1.42-.99-2.16.07-.74.07-2.02,0-2.19-.07-.18-1.06-2.05-1.34-2.13-.28-.08-1.06-.26-1.42,0-.35.27-1.91-.07-2.75,0-.85.07-1.77,1.08-2.34,1.35-.57.27-.99,1.41-1.76,1.75-.78.34-1.77.27-2.27.2-.49-.07-2.4-.61-2.61-.81-.21-.21-1.77,1.42-1.98,1.55-.21.14-1.48,2.36-1.7,2.56-.21.2-1.41,3.91-1.41,3.91l-.71,4.45-.11.08s-.14.07-.2.12c-.06.04-.11.08-.16.08s-.14,0-.14,0c0,0-.33-.05-.38-.1s-.28-.1-.42-.25c-.15-.16-.06-.11-.17-.26s-.28-.39-.49-.65c-.19-.26-.23-.33-.3-.45-.07-.12-.17-.2-.17-.2,0,0-.49-1.35-.55-1.35-.06,0-.38-.08-.47-.23-.1-.15-.19-.15-.3-.32-.11-.17-.24-.54-.24-.54l-.05-.34.21-.23s.31-.16.36-.22.44-.2.44-.2l.57-.42s.44-.11.45-.15c.02-.03.26-.07.39-.18.13-.12.21-.12.21-.22,0-.08.15-.11.17-.29,0-.18.05-.39,0-.58-.03-.19-.08-.59-.09-.71-.02-.12,0-.44-.02-.47,0-.04-.11-.49-.21-.6-.1-.11-.64.02-.67.04-.03,0-.91-.02-.91-.02,0,0-.23.13-.33.18s-.34.36-.39.43c-.05.06-.19.38-.23.5-.03.12,0,.46,0,.61s.15.45.13.66c0,.21-.16.45-.19.49-.02.05-.68.3-.68.3,0,0-.54.28-.83.28s-.43-.16-.51-.21c-.08-.05-.32-.44-.32-.44l-.22-.49-.04-.4.16-.34.29-.82.41-.04s.46-.05.61-.22c.15-.15.28-.21.28-.25.02-.05.18-.42.18-.82s-.02-.32-.02-.49-.06-.53-.14-.63c-.09-.1-.3-.25-.49-.3-.19-.06-.43-.16-.51-.17-.08-.02-.59.1-.95.13-.36.04-.48.12-.62.16-.14.03-.24.35-.29.42-.05.06-.04.39-.04.43,0,.05.09.34.26,1.26.18.92-.06.43-.11.47-.05.03-.74.11-.83.13-.1.02-.23.02-.26,0-.04,0-.53-.23-.57-.27-.03-.03-.4-.52-.51-.59s-.19-.15-.28-.29c-.09-.13-.32-.55-.32-.59s.22-.63.22-.63l.4-.2s.74-.96.78-1.06c.05-.1.12-.39.1-.45-.02-.05,0-.59-.03-.67-.02-.08-.3-.59-.33-.66-.04-.05-.52-.35-.56-.38-.03-.02-.89-.18-.96-.18-.03.02-.39.12-.79.23-.4.1-.35.52-.4.57s-.15.76-.15.91.2.69.18.91c-.02.21-.21.33-.33.32-.12,0-.39-.22-.49-.24-.11-.02-.73-.4-.73-.4,0,0-.43.07-.61.03-.18-.03-.18,0-.27-.11-.1-.1-.59-.46-.65-.54-.06-.08-.02-.24-.04-.34,0-.1-.24-.6-.32-.71-.09-.1-.02-1.02-.02-1.14-.02-.12.3-.54.39-.66.08-.11-.06-1.7-.06-1.7,0,0-.57-.46-.68-.46-.1.02-.49.39-.57.45-.07.06-.7.77-1.04.99-.34.22.23,1.83-.21,1.9-.44.07-1.39-1.54-1.57-1.58-.19-.03-1.03-.08-1.08-.06-.04,0-.13.42-.14.49,0,.08-.08.76-.16.85-.09.09-.49.53-.56.6-.07.06-.13.7-.15.77-.02.07,2.41-.1,2.39.07-.02.17-.36.54-.36.54,0,0-.23.4-.42.67-.19.27-.19.68-.19.81v.49s.32,1.8.32,1.93c0,.13,1.46.58,1.46.58l.17.08s-.35.01-.17-.08c.19-.08-.25,1.13-.07.68.19-.45-.14-.81,0-1.03.14-.22-.14-.72,0-.9.14-.18.9-1.43,1.13-1.53.23-.09.66.09.66.09l.76.4.84.81s1.18.36,1.42.45c.23.09.71.59.57.9,0,0-.75.18-.99.18s-.23,0-.61-.05c-.38-.05-.28,0-.52,0s-.61.09-.85.14c-.23.05-.61.35-.61.35l-.09.68s.05.62.05.76c0,.13.52.59.66.72.15.13,1.37.05,1.37.05l1.13-.36s.99-.89,1.08-1.08c.1-.18.47-.85.47-.85l.61-.18.99.32.52.86.43.54-.15.99-.14.05c-.15.05-.85.08-.85.08,0,0-1.32.36-1.46.45-.14.08,0,1.34,0,1.34l.19.45.42.58h.61l1.65-.45.19-.72v-.72l.75-.27h.8l.9.27s.66,1.26.75,1.39c.1.14.8,1.71.8,1.71l.61,1.7.42,1.03s1.32,1.16,1.42,1.48c.1.32-.14.59-.33.72-.19.14-.99.18-.99.18l-.75-.41s-.95-1.16-1-1.34c-.04-.18-2.07-2.11-2.21-2.11-.15,0-2.69-.63-3.12-.72-.42-.09-2.02-.23-2.35-.27-.33-.05-1.46-.49-2.03-.49s-3.16.27-3.16.27c0,0-2.5.94-2.73,1.03-.23.09-1.37,1.44-1.37,1.44,0,0-1.6,1.08-1.74,1.16-.15.09-2.12.41-2.36.49-.23.09-1.41.72-1.55.86-.14.14-.8,1.7-.94,1.84-.15.13.99,1.13.99,1.13l.75,1.7s-.99,1.84-1.27,2.24c-.28.41-.47,2.7-.47,2.7l1.22,1.57s3.92-.14,4.05-.14c.15,0,3.63-.35,3.87-.23.23.13,4.05-.8,4.19-.8.15,0,2.78-.45,2.92-.45.15,0,2.17.13,2.17.13,0,0,1.56,1.17,1.56,1.3,0,.14-.38,1.3-.38,1.3l-1.37.32-2.54.49s-2.08.18-2.97.22c-.9.05-1.98.09-2.78.18-.8.08-2.35.45-2.6.58-.23.14-2.12.63-2.4.72-.28.09-1.46,1.17-1.65,1.3-.19.14-2.59,2.65-2.59,2.87s1.7,1.48,1.93,1.71c.23.22,1.13,2.51,1.13,2.74s-.8,2.07-1.28,2.69c-.47.63-1.08,3.68-1.12,4.35-.05.68.7,2.34.75,2.52.05.18,4.01.58,4.01.58l3.3.72s2.73.62,3.25.62,2.59.09,2.92,0c.33-.08,2.17-1.03,2.17-1.03,0,0,2.31-2.07,2.59-2.61.28-.54.71-2.64.75-3.41.05-.76,1.18-3.86,1.18-3.86,0,0,1.79-2.25,2.22-2.7.42-.45,1.98-1.84,2.07-2.02.1-.18,1.75.05,1.75.05,0,0-.33,2.38-.61,2.64-.28.27-1.22,1.4-1.7,1.8-.47.41-.89,1.53-1.08,1.84-.19.32-.37,2.29-.57,2.7-.19.4.15,3.99,0,4.4-.14.4,1.28,3.23,1.32,3.55.05.32,1.46,2.47,1.61,2.83.14.36,3.11,1.13,3.39,1.16.28.05,2.31-.99,2.55-1.26.23-.27,3.01-1.53,3.01-1.53l2.65.05s2.21.81,2.35.9c.14.08,1.7,1.53,1.89,1.75.19.22,2.64.35,2.64.35l4.29-2.29s1.65-.81,1.55-1.12c-.09-.32.9-1.22.9-1.93s.1-2.11.1-2.47-.23-1.93-.28-2.11,1.5-1.13,1.74-1.48c.23-.36.71-1.98.61-2.2-.1-.22,0-2.56,0-2.56,0,0-.57-2.15-.61-2.29-.05-.13-2.49-1.7-2.69-1.7s-3.16-2.02-3.34-2.11c-.19-.09-2.55-.86-2.83-.94-.28-.09-3.3-.95-3.44-.95-.15,0-1.75-1.34-1.75-1.34l2.83.27,4.14,1.07,4.2,1.57,2.31.76,4.43,1.13,2.45-.45h.85l1.32-.41s.47-1.48.47-1.62c0-.13,1.32-1.43,1.32-1.43l1.65-.54s2.14-4.51,2.1-4.98c-.05-.48-.09-2.16-.09-2.16,0,0,.21-1.28,0-1.7ZM369.87,216.82c-.23.08-.74.04-1.59.04s-1.08-.04-1.08-.04h-1.43c-.44,0-1.42-.08-1.67-.1,0,0-.02,0-.02,0-.02,0-.03,0-.05,0s-.02,0-.03,0l-.15-.02c-.07-.02-.14-.03-.2-.04-.09-.02-.18-.03-.25-.05-.05,0-.09-.02-.13-.02-.07,0-.15-.02-.21-.04-.14-.02-.26-.05-.36-.06-.02,0-.04,0-.06,0-.08-.02-.14-.02-.19-.03-.02,0-.03,0-.05,0-.02,0-.03,0-.04,0-.09,0-.43.04-.78.07-.21.02-.42.03-.58.03-.43,0-1.33.4-1.55.49-.24.08-.95.26-.95.26l-1.08,1.28-.43,1.28h0s.31.4.31.4l.91,1.17,1.84.77h0s.06.02.14.05c.18.05.5.16.89.29.07.02.15.05.22.08.18.05.36.11.54.17.11.03.2.07.31.1.14.05.27.08.39.13,0,.27.02.57-.02.62-.08.11-.58.37-.78.45-.19.07-.79,1.66-.79,1.66l-.02.73s.04,1.29,0,1.41c-.04.11-.12.85-.19.99-.08.15-.74.89-1.01,1.25-.27.37-1.28.04-1.59,0s-1.04-.7-1.63-1.58c-.57-.89,0-.96,0-1.11s-1.59-1.11-1.7-1.15c-.12-.04-.66.15-.86.18-.19.04-.46.63-.66.74-.19.11-1.46.22-1.74.22s-.77-.55-.89-.74c-.06-.11-.18-.38-.25-.57.06-.2.14-.42.21-.64.11-.33.21-.65.26-.82t0-.02c.02-.06.03-.1.03-.12,0-.04.08-.13.2-.24.06-.07.15-.14.23-.2.04-.03.07-.06.11-.08.28-.21.55-.42.55-.42h0s-.1-.24-.22-.54c-.03-.05-.06-.12-.08-.18-.06-.12-.11-.25-.17-.39-.04-.09-.07-.18-.11-.27-.03-.08-.06-.15-.09-.21-.02-.04-.02-.07-.04-.09-.02-.05-.05-.09-.06-.12,0-.02-.02-.05-.02-.05-.1-.18-.52-1.12-.71-1.12-.14,0-1.37.02-2.15.06-.26,0-.47.02-.58.02-.12.02-.31.05-.53.12-.02,0-.03,0-.05.02-.09.03-.19.05-.29.08-.11.02-.21.05-.31.09-.17.05-.34.1-.49.15-.02,0-.05.02-.07.03-.13.04-.23.08-.33.1-.47.13-.89,1.12-1.08,1.29-.11.11-.31.55-.5.96-.04.07-.07.13-.11.2-.02.05-.05.1-.08.15-.03.05-.06.1-.09.15-.04.07-.08.12-.12.16-.21.2-.59.64-.9,1.01-.1.12-.19.24-.28.34-.03.04-.07.08-.12.15h0c-.45.3-1,.63-1.38.65-.7.04-.54-.32-1.08-1.03-.55-.7-.19-1.14-.32-1.47-.11-.34.61-1.03.85-1.59.23-.55.28-.74.08-.86-.19-.1-.32-.32-1.21-.88-.89-.55.04-.89-.11-1.47-.15-.59.74-1.04.74-1.15,0-.12,1.16-.41,1.32-.52.02-.02.08-.05.17-.07h0c.15-.02.33-.05.51-.07.07,0,.15-.02.21-.03.36-.05.72-.08.96-.1.16,0,.27,0,.31,0,.02,0,.04,0,.08-.03.04-.02.1-.06.16-.11.11-.09.24-.22.39-.35l.15-.14c.3-.3.61-.64.78-.85.05-.06.09-.11.11-.15.02-.02.02-.03.02-.04.05-.14,0-.76,0-.76,0,0-.06-.05-.16-.13-.27-.23-.79-.68-1.18-1.02h0c-.15-.13-.28-.25-.36-.32h0l-.07-.07s-.03-.03-.04-.04c-.02-.02-.07-.04-.15-.06-.08-.02-.19-.05-.33-.08-.13-.03-.28-.07-.44-.1-.24-.05-.51-.12-.76-.16-.17-.04-.33-.08-.48-.11h0c-.15-.04-.29-.07-.4-.09-.18-.05-.3-.08-.35-.11-.05-.03-.21-.1-.42-.19-.09-.03-.19-.08-.29-.12-.17-.07-.36-.15-.55-.23-.23-.09-.46-.19-.68-.29-.11-.05-.23-.1-.34-.15h0c-.1-.05-.19-.08-.28-.12-.22-.1-.39-.18-.49-.22-.02,0-.03-.02-.05-.02-.07-.04-.24-.08-.46-.12-.08-.02-.17-.03-.27-.05-.18-.02-.38-.05-.57-.08-.08,0-.15-.02-.23-.03h0s-.07-.02-.11-.03c-.51-.18-.62-1.11-.66-1.29-.04-.18.42-.7.42-.7l.93-.33,1.21-.66,1.04-.37,1.5.07,1.28-.69v-.63l1.04-.66h1.11c.15.44.34,1.01.42,1.27.02.07.03.12.04.14.02.1.27.35.47.56.05.04.08.08.12.12.02.02.04.04.06.05.07.07.11.11.11.11l.78.42h0s1.1.61,1.1.61l.51.73.02.03.66.95,1.42,3.95.94,2.69h0s1.61.23,1.61.23l1.31-.32h0s-.04-.45-.09-.98c-.06-.67-.15-1.46-.2-1.53,0,0,0,0,0-.02-.02-.1.16-.62.36-1.16.02-.06.05-.12.06-.18.02-.05.04-.12.06-.18.09-.24.16-.45.21-.63.05-.15.07-.26.06-.32-.05-.26-.05-1.08-.15-1.4-.09-.31-.57-2.24-.61-2.82-.04-.45-.16-.45-.21-.42,0,0-.02,0-.02,0,0-.1-.09-.77-.19-1.46-.02-.14-.05-.28-.07-.42h0c.14-.29.32-.52.31-.57-.04-.11.35-1.4.35-1.4,0,0,.66-1.47.77-1.84.12-.38.93-1.07.93-1.07l1.21-.92s1.78.49,1.93.55c.15.07,1.46-.22,1.46-.22,0,0,.67-.52.86-.6.19-.07,1.2-.29,1.2-.29l.23.4s.32,1.52.32,1.76c0,.26-.12.86-.12.86,0,0-.02.05-.06.14l-.15.12c-.08.06-.17.12-.26.19-.44.32-.93.65-1.23.83-.24.15-.59.45-.92.77l-.15.14s-.1.08-.15.13c-.05.05-.09.09-.14.13-.04.05-.09.08-.13.12s-.08.08-.12.12l-.11.11c-.07.07-.14.12-.19.17-.03.02-.06.04-.07.06h0s-.04.04-.06.06c-.06.07-.14.19-.22.32-.02.03-.05.07-.06.11-.02.04-.05.08-.07.12-.06.1-.12.22-.18.33-.16.29-.32.62-.46.87v.02c-.08.14-.15.25-.19.35h0s-.04.06-.06.08c0,0,0,.02-.02.03,0,.02-.02.03-.03.04-.07.07-.24.35-.44.71-.05.11-.11.22-.18.35-.06.12-.13.24-.19.36v.02c-.12.25-.25.49-.36.72-.09.18-.16.33-.22.45-.02.05-.04.08-.06.12-.04.07-.06.12-.07.15,0,.02-.02.05,0,.11-.04.54.15,2.7.15,3.03,0,.04.02.07.04.1.14.15.65.12,1,.07h0c.15-.02.28-.03.32-.03s.18,0,.39-.02c.03,0,.06,0,.1,0,.07,0,.15,0,.24,0,.28-.02.62-.03.92-.05.09,0,.18,0,.26-.02.08,0,.15,0,.22-.02.06,0,.13,0,.19-.02.06,0,.11,0,.14,0,.11,0,.21-.05.3-.12h0s.06-.05.1-.07c0,0,.02-.02.03-.03.09-.06.18-.15.26-.24.12-.12.23-.25.34-.35.02-.02.05-.04.08-.06.05-.04.09-.07.15-.11.36-.22.94-.49,1.24-.76.06-.05.11-.1.14-.15s.09-.11.15-.17c.06-.07.15-.14.23-.21.13-.1.27-.21.42-.33.07-.05.14-.11.2-.16.1-.08.19-.16.29-.25.02-.02.03-.03.05-.04.31-.28.6-.58.78-.89.11-.02.18-.03.22-.04.27-.07,1.78-.07,1.9-.07.11,0,.57,1.07.57,1.07l.16,1.88.69.88s.89.04,1.05.04,1.7,1,1.78,1.11c.07.11.31,1.51.31,1.8s-.5.44-.73.52Z"/>
    <path class="cls-11" d="M201.8,165.71c-3.68-6.47-14.52-6.78-20.02-2.43-6.61,5.09-4.61,16.08-4.2,23.39.43,4.42.77,8.91,1.43,13.29.75,4.33,1.18,7.19-4.25,7.88-2.32.3-7.05,1.69-8.13.44-.66-.97-.35-2.02-.15-3.61.48-3.14.94-5.82,1.33-8.91.53-4.04.72-8.62.52-12.87-.07-1.86.23-3.73-.88-5.33-1.4-1.78-2.87-3.11-5.15-4.03-3.74-1.39-12.75-1.43-9.86,4.53,1.26,3.17,2.11,6.05,3.01,9.23.8,4.08.55,8.35.37,12.5-.15,3.96.75,8.34-5.17,6-2.76-.78-6.2-3.28-8.7-4.4-4.54-1.91-6.92,3.38-6.1,7.03,2.82,15.22,19.36,3.88,14.78,12.71-1.64,2.99-3.54,5.49-6.57,7.6-4.03,2.9-8.34,4.23-11.61,7.83-6.08,6.8-2.64,16.24,6.41,17.92,7.7,1.96,14.71-4.29,18.1-10.23,1.38-3.23,2.58-6.79,3.35-10.24.78-4.95,1.92-9.63,2.83-14.73.3-1.58.59-3.37,1.96-4.42,1.81-1.29,3.85-.8,6.44-1.33,2.38-.3,5.22-1.46,7.55-.84.7.25,1.01.81,1.13,1.76.11,2.23.2,5.56-.1,7.89-.94,3.6-2.27,7.45-4.44,10.46-2.03,3.3-5.59,6.21-7.87,9.46-3.37,6.03,5.45,7.21,9.76,6.25,5.24-.57,10.14-1.6,15.18-2.44,4.12-1.65,1.15-5.82.46-8.78-3.76-11.6-4.11-24.04-2.11-35.84,1.38-10.79,15.28-25.23,10.83-35.57l-.1-.19ZM145.47,253.39s-.02,0-.02-.01h.02ZM158.4,174.83h-.01s0-.01.01-.01h0ZM195.06,243.25s.01.03.01.06c0,.09-.01.17-.02.26.01-.1.01-.22.01-.32ZM195.02,242.73c.01.06.01.12.01.18,0-.08-.01-.15-.02-.22.01.01.01.02.01.03Z"/>
    <path class="cls-11" d="M211.43,225.44c.21,3.18,1.03,9.17,1.23,12,0,1.07-.31,1.85-.58,2.98-.39,1.52-.86,3.05-2.12,3.7-1.99.96-4.53.93-6.57,0-2.11-.85-3.61-2.96-4.11-5.63-.99-5.76,2.57-15.97,1.08-23.02-.79-3.78-5-10.58.14-12.03,3.41-.81,12.47-2.3,12.55,3.99.04,1.76-.44,3.56-.8,5.25-.85,3.9-.93,8.52-.83,12.61v.16Z"/>
    <path class="cls-11" d="M213.74,196.01c-2.08,3.47-5.28,4.58-8.85,4.23-1.53-.15-2.43-.6-3.56-1.56-1.05-.88-1.79-1.45-2.13-3.08-.52-2.49-.57-5.37,1.27-7.34,2.02-2.15,3-2.9,6.42-3.29.91-.1,1.76-.16,2.28.32,1.68,1.52,3.16-.27,5.14,5.67.73,1.68.19,3.61-.57,5.04Z"/>
    <path class="cls-11" d="M270.98,225.75c.23,2.89,1.17,8.35,1.39,10.93,0,.97-.35,1.69-.66,2.71-.44,1.39-.97,2.78-2.41,3.37-2.25.88-5.13.85-7.44,0-2.39-.78-4.1-2.69-4.66-5.13-1.12-5.25,2.91-14.55,1.22-20.97-.89-3.44-5.67-9.64.15-10.96,3.86-.74,14.14-2.09,14.23,3.64.04,1.6-.5,3.24-.9,4.78-.96,3.56-1.06,7.76-.94,11.49v.15Z"/>
    <path class="cls-11" d="M270.49,198.24c-1.95,3.38-4.95,4.45-8.3,4.12-1.43-.14-2.28-.59-3.34-1.52-.99-.86-1.68-1.41-1.99-2.99-.49-2.42-.53-5.22,1.19-7.14,1.9-2.09,2.82-2.82,6.02-3.2.86-.1,1.65-.15,2.14.31,1.57,1.48,2.96-.26,4.82,5.51.69,1.64.18,3.51-.54,4.91Z"/>
    <path class="cls-11" d="M252.59,215.65c-.73-1.75-2.06-3.31-3.73-4.38-1.38-.94-3.18-1.37-3.12-2.51.19-1.48,1.48-2.94,2.17-4.26,3-4.53,4.83-10.67.63-15.07-5.75-6.23-15.51-5.77-23.52-6.06-2.44.03-5.55-1.07-7.19,1.03-.92,1.63,0,3.75.48,5.44.96,2.55,1.24,5.24,1.31,7.98.36,3.97.31,8.51.41,12.5.13,7.37.44,14.59-.33,21.92-.47,3.01-1.41,5.77-2.15,8.63-.69,3.93,4.09,2.48,6.59,2.27,1.94-.18,3.91-.28,5.98-.42,5.46-.93,11.65-.89,16.24-4,1.97-1.54,4.04-3.01,5.25-5,2.73-5.42,3.49-12.19,1.05-17.89l-.08-.19ZM218.95,185.37s-.01-.03-.01-.04l.07-.09-.06.13ZM222.69,241.75s0-.03.02-.04c.02,0,.05.01.07.01-.04.01-.06.02-.09.03ZM233.59,193.29c6.82-2.45,7.13,7.03,4.94,10.89-.64,1.67-5.35,5.81-7.07,4.38-.07-.77-.04-3.89-.08-6.65.21-3.13-1.01-6.58,2.04-8.53l.17-.08ZM241.71,225.67c-.91,2.98-6.09,5.84-8.5,2.65-1.66-2.28-1.53-5.33-2.01-7.97-.27-1.7-.35-3.72,1.04-5.02,1.22-1.22,3.34-.95,5.02-.86.89.05,1.67.14,2.34.41,4.22,1.89,4.13,7.29,2.2,10.63l-.07.16ZM243.74,221.33s-.01-.02-.01-.03h.02s-.01.02-.01.03ZM249.11,234.64c.05-.09.08-.13.13-.14l-.13.14Z"/>
    <path class="cls-11" d="M290.21,193.76c1.29-3.18,5.54-3.77,7.29-.69,1.37,2.33,1.36,6.76,2.7,9.12,4.37,7.75,13.56,1.66,13.98-5.6.59-15.84-20.92-19.49-31.87-14.2-15.48,11.72-1.08,23.78,6.85,34.44,1.81,2.73,9.62,9.23,6.4,12.29-.87.77-2.2.64-3.05-.13-2.11-1.91-1.67-5.5-3.44-7.76-3.25-4.92-10.11-2.19-12.57,2.19-4.42,7.97,1.86,18.01,9.14,21.39,6.79,3.05,14.83,2.55,21.61-.95,3.6-2.45,6.72-6.93,6.8-11.44-.12-7.35-6.57-13.57-11.56-18.27-5.51-5.02-15.58-11.34-12.35-20.2l.08-.19ZM309.37,189.98v.02s-.01.01-.02.01c.01-.01.01-.02.02-.04ZM297.71,211.81s-.01-.01-.01-.01c0,0,.01-.02.01.01ZM288.68,195.47h-.01s.01-.07.02-.1c-.01.04-.01.06-.01.1Z"/>
    <path class="cls-11" d="M317.73,196.88c-1.61-3.57-1.76-7.64-.76-11.43.17-.7.39-1.37.64-2.05.34-.89,1.15-1.39,1.99-1.68.01-.01.04-.01.05-.02.29-.1.56-.17.84-.24.85-.2,2.61.07,3.09,1.17,3.14,7.19-3.12,20.33-5.86,14.25Z"/>
  </g>
</svg>