<?xml version="1.0" encoding="UTF-8"?>
<svg id="Layer_1" data-name="Layer 1" xmlns="http://www.w3.org/2000/svg" viewBox="0 0 384 384">
  <defs>
    <style>
      .cls-1 {
        fill: #e97659;
      }
    </style>
  </defs>
  <path class="cls-1" d="M224.74,170.2c-5.44,7.75-14.07,11.2-23.02,12.3,7.5.69,15.8-1.9,22.19-6.89-1.51,4.42-4.73,7.53-8.64,9.74-7.15,4.06-15.59,4.83-23.53,2.81-3.46-.88-6.1-2.79-8.96-4.58-10.8-6.77-4.84-16.32-5.5-19.03l-2.24-9.22c-1.41-5.77,1.7-11.32,6.78-14.57l1.73-3.97c2.66-6.13,8.9-9.19,15.55-8.18,4.37.67,8.33,2.46,11.81,5.23.89,10.85,4.31,18.18,9.74,27.35-4.57.12-7.76-2.25-11.56-3.94,4.34,4.26,7.7,6.39,13.83,7.18.65.18.7,2.08.27,2.64-12.76,2.12-22.73-1.43-33.88-7.55,4.29,3.8,9.33,6.23,14.64,8.26,6.61,2.53,13.16,2.9,20.8,2.43Z"/>
  <path class="cls-1" d="M194.97,220.34c-3.58.29-6.47-1.62-7.38-4.92-.38-1.39-1.23-2.53-2.24-3.56-6.87-6.98-3.81-15.35,2.14-21.9,10.39,4.07,21.65,2.66,31.14-3.02.02,2.54-1.1,4.4-2.4,6.57,3.35-1.71,4.94-5.13,5.4-8.75l4.25-5.19c1.01,9.93-2.8,19.07-10.25,25.9,5.4-2.94,8.7-8.28,10.92-13.81,2.13-5.32,2.18-10.69,2.13-16.6,4.36,5.85,4.81,12.71,4.93,19.28,1.26-4.59,1.29-8.84.69-13.81,7.54,6.5,11.67,15.5,6.83,25.25-2.09,4.21-4.96,7.67-8.17,11.1-1.58,1.68-3.04,3.4-4.86,4.81-4.45,3.45-10.04,4.39-15.43,2.64-1-.33-2.34-.42-3.31-.08-4.09,1.44-8.28.36-11.23-2.8-.75-.8-1.87-1.22-3.15-1.12Z"/>
  <path class="cls-1" d="M207.08,275.16c-1.29-.09-2.43.28-3.21,1.1-3.19,3.4-7.54,4.24-11.91,2.65-1.77-.65-7.91,3.16-15.23-.59-3.11-1.59-5.34-4.07-7.67-6.58-3.26-3.53-6.22-7.04-8.31-11.37-4.64-9.64-.63-18.34,6.95-25.09-.6,4.95-.61,9.4.72,13.93-.18-5.65.92-14.96,4.94-19.19-.19,5.52.02,10.29,1.64,15.34,2.36,6.45,6.26,12.56,12.54,15.76-8.19-6.55-12.45-16.14-11.45-26.69l4.26,5.15c.49,3.63,2.06,7.04,5.41,8.75-1.29-2.16-2.43-4.01-2.41-6.57,9.49,5.68,20.73,7.09,31.14,3.02,5.94,6.44,9,15.07,2.09,21.97-.96.96-1.82,2.13-2.17,3.43-.9,3.33-3.77,5.23-7.34,4.98Z"/>
  <path class="cls-1" d="M236.1,138.04c-3.14,6.13-4.36,14.64-4.07,21.25.01.29-.56.92-.66.8-.16-.18-.54-.66-.6-.9-2.93-12.45-2.37-24.82,1.16-37.16-5.57,11.94-6.16,25.08-4.16,38.74-5.11-8.11-7.03-17.75-6.32-27.5-2.23,8.47-1.02,17.02,1.91,25.85-9.93-14.09-15.91-36.92,3.07-47.12.9-6,8.96-8.43,13.51-6.73.98.37,2.21,1.42,3.14,1.92,2.48-.67,4.63-1.23,7.05-1.28,3.47-.06,6.49,2.05,7.3,5.44l1.24,5.23c1.87,1.55,3.5,3.38,3.17,5.89-.43,3.17-2.79,5.27-5.43,6.69-10.41,5.61-16.88,18.07-21.48,28.87-1.32-6.56-.14-13.16,1.17-19.98Z"/>
  <path class="cls-1" d="M144.18,214.12c4.7.95,9.2,2.01,12.74,5.24-10.89-2.43-22.99.7-28.7,10.95-6.03-.58-11.44-3.69-11.81-10.23-.15-2.62.41-5.08.91-7.76l-.89-4.15c-2.11-9.81,9.12-13.01,9.91-14.21l3.97-6.09c2.3-3.53,6.9-4.28,11.01-2.65,9.86,3.9,18.61,17.43,22.18,27.22-1.96-2.1-3.73-4.21-6.37-5.75,1.85,2.96,4.47,5.23,5.16,9.16-8.08-7.61-18.87-10.72-29.41-7.73l4.25-.16c10.08-.39,20.05,4.94,25.65,12.98-5.45-5.3-11.08-7.14-18.58-6.82Z"/>
  <path class="cls-1" d="M245.06,164.54c3.57-3.23,8.05-4.26,12.87-5.26-2.86-.24-5.78.19-8.71.83-3.75,1.01-6.66,3.05-9.67,5.55,5.94-7.95,15.22-12.81,25.26-12.51l4.33.13c-10.57-2.95-21.33.12-29.38,7.72.63-3.85,3.17-6.08,5.16-9.16-2.37,1.35-4.08,3.33-6.13,5.36,4.25-10.43,10.95-22.04,21.4-26.52,4.46-1.91,9.79-1.16,12.13,2.88l3.24,5.6c1.89,1.46,4.41,2.27,6.23,3.84,3.03,2.6,4.64,6.27,3.78,10.31l-.9,4.24c1.41,5.72,1.91,12.31-3.79,15.7-2.14,1.27-4.55,1.97-7.1,2.23-5.7-10.23-17.81-13.37-28.71-10.94Z"/>
  <path class="cls-1" d="M170.13,176.9c3.2,12.31,4.61,25.66.4,38.54-.99-8.27-.91-15.81-4.75-22.74,1.44,6.69,2.57,13.02,1.31,20.09-5.68-12.24-11.4-24.97-25.02-30.49l-1.49-3.4c-1.26-2.87.22-5.72,2.75-7.46l1.22-5.26c.76-3.28,3.55-5.39,6.93-5.45,2.53-.04,4.83.57,7.41,1.28l3.13-2.01c3.61-1.02,7.37-.28,10.4,1.76,3.93,2.65.04,5.06.9,12.98.46,4.27,2.6,7.8,6.1,10.21l5.14,3.53c-5.42,7.05-8.87,14.05-3.83,22.41l-3.88,6.08-2.72-1.9c2.19-12.86,1.43-26.08-4.02-38.19Z"/>
  <path class="cls-1" d="M210.43,242.97c-8.38,2.1-17.13,1.1-24.38-3.17-4.24-2.49-7.52-6.23-8.43-11.27,5.32,2.35,10.5,3.28,16.04,2.71l4.71-.48c-7.29-.34-14.37-1.21-20.51-5.55,2.04-8.81-1-2.53,4.75-11.35.61.26,1.66,1.21,1.85,1.95,1.35,5.21,5.77,8.11,11.21,7.6,4.04,4.4,9.78,5.71,15.31,3.63,4.86,1.67,9.84,1.82,14.59-.23.65,5.1-2.33,9.22-6.57,11.73-2.77,1.64-5.11,3.56-8.57,4.43Z"/>
  <path class="cls-1" d="M247.69,175.04c5.85-.06,9.79,2.97,14.78,5.28-4.15-4.56-11.3-8.59-18-8.57l-2.46-2.79c7.03-3.11,15.1-2.89,21.87.77,4.99,2.7,8.07,7.31,8.78,12.86,3.31,4.67,3.03,10.63-1.07,14.85-8.27-7.05-16.28-14.33-23.89-22.39Z"/>
  <path class="cls-1" d="M138.37,235.96c5.22-2.76,9.59-6.03,15.93-6.14-7.45,8.01-15.46,15.18-23.85,22.42-4.11-4.02-4.47-10.15-1.12-14.85.71-5.63,3.9-10.31,9.03-12.99,6.73-3.52,14.72-3.67,21.63-.62l-2.49,2.81c-7.71.04-13.88,4.35-19.14,9.37Z"/>
  <path class="cls-1" d="M153,242.72c-8.14,5.8-16.06,11.24-24.85,15.63,14.54-12.39,27.79-24.78,39.93-38.9,1.65-1.92,4.11-2.12,5.89-.67s2.19,4.27.31,6.09c-6.68,6.47-13.51,12.32-21.28,17.86Z"/>
  <path class="cls-1" d="M273.89,203.56c-9.78-4.93-18.36-10.92-26.97-17.19-6.91-5.03-13.12-10.41-19.2-16.33-1.76-1.71-1.57-4.4.09-5.94,1.56-1.45,4.28-1.58,5.91.32,12.23,14.24,25.63,26.79,40.17,39.14Z"/>
  <path class="cls-1" d="M254.33,203.81c-1.39-.78-5.46,4.02-8.97.05,1.39-5.15,1.28-10.16-1.01-15.4,7.08,5.03,13.8,9.61,21.14,14.1-3.02,2.94-7.28,3.45-11.17,1.26Z"/>
  <path class="cls-1" d="M150.51,259.52c-.82-.43-2.34-1.24-3.02-.84-3.65,2.15-8.02,1.61-11-1.3,7.15-4.38,13.7-8.86,20.89-13.89-1.85,5.28-2.26,10.23-.69,15.19-1.51,1.85-4.02,1.88-6.18.84Z"/>
  <ellipse class="cls-1" cx="283.29" cy="216.93" rx="2.39" ry="2.39"/>
  <ellipse class="cls-1" cx="269.93" cy="209.55" rx="2.39" ry="2.39"/>
  <ellipse class="cls-1" cx="111.83" cy="271.85" rx="2.39" ry="2.39"/>
  <ellipse class="cls-1" cx="290.16" cy="217.03" rx="2.39" ry="2.39"/>
  <ellipse class="cls-1" cx="132.06" cy="264.37" rx="2.39" ry="2.39"/>
  <ellipse class="cls-1" cx="118.7" cy="271.75" rx="2.39" ry="2.39"/>
  <ellipse class="cls-1" cx="286.92" cy="203.71" rx="2.39" ry="2.39"/>
  <ellipse class="cls-1" cx="125" cy="268.27" rx="2.39" ry="2.39"/>
  <ellipse class="cls-1" cx="276.99" cy="213.45" rx="2.39" ry="2.39"/>
  <ellipse class="cls-1" cx="115.07" cy="258.52" rx="2.39" ry="2.39"/>
  <ellipse class="cls-1" cx="291.18" cy="210.19" rx="2.39" ry="2.39"/>
  <ellipse class="cls-1" cx="110.81" cy="265.01" rx="2.39" ry="2.39"/>
</svg>