<?xml version="1.0" encoding="UTF-8"?>
<svg id="Layer_1" data-name="Layer 1" xmlns="http://www.w3.org/2000/svg" viewBox="0 0 360.7 275.77">
  <defs>
    <style>
      .cls-1 {
        fill: #e97659;
      }

      .cls-1, .cls-2 {
        stroke: #fff;
      }

      .cls-1, .cls-2, .cls-3 {
        stroke-miterlimit: 10;
      }

      .cls-2, .cls-3 {
        fill: #fff;
      }

      .cls-3 {
        stroke: #e97659;
      }
    </style>
  </defs>
  <path class="cls-1" d="M132.84,34.82c.11-.09.11-.18.94-.57.83-.39,1.39-.83,1.57-.96.05-.04.1-.09.14-.16l1.1,1.74c-.02.06-.04.13-.06.21-.26.92-.39.44-.79,1.18-.39.74-.61.61-.87.92-.26.3-1.22.61-1.22.61h-.62l-.52-.7-.22-1.05s.44-1.14.55-1.22Z"/>
  <path class="cls-1" d="M138.28,37.55c-.41-.34-.92-.85-.92-.85l.15-.37.77,1.22Z"/>
  <path class="cls-1" d="M137.71,38.97h1.31s.09.08.27.18l1.08,1.7c-.1-.08-.19-.17-.26-.27-.3-.39-2.4-1.61-2.4-1.61Z"/>
  <polygon class="cls-1" points="132.02 40.04 131.18 39.93 131.72 38.97 132.02 40.04"/>
  <path class="cls-1" d="M168.55,85.72v3.09c0,.76-.82,2.39-.82,2.39,0,0-2.27,5.18-2.33,5.36-.06.17-1.63,2.39-1.98,2.8-.35.4-2.27,1.8-2.27,1.8,0,0-2.33,1.52-2.68,1.69-.35.18-1.92,1.92-1.92,1.92,0,0-1.11,2.62-1.11,2.86s-.11,1.92-.06,2.33c.06.41.99,2.21.99,2.21l.94,2.74,1.51,1.86s2.56,2.62,2.62,2.86c.06.23,2.27,1.86,2.68,2.44.41.59,1.22,1.46,1.22,1.46l.82,2.68s.06,2.33,0,3.03c-.06.7,0,2.68,0,2.68,0,0-2.74,3.73-2.91,3.96-.18.23-.82,2.39-.99,2.68-.18.29-2.45,2.04-3.03,2.45-.58.4-2.39,1.8-2.39,1.8l.76,2.68s2.04,1.11,2.21,1.22c.18.12,3.32.41,4.25.41s-.75,1.98-.93,2.27c-.17.3-.12,1.29-.7,2.1-.58.82-1.57.58-1.86.64-.29.06-2.16.47-2.97.64-.82.18-4.02.35-4.02.35l-5.01,2.27s-2.33,1.05-2.51,1.17c-.17.12-2.33,3.49-2.56,3.67-.23.17-1.63,3.61-1.75,3.96-.11.35,1.52,3.96,1.81,4.66.29.7,2.04,1.46,2.44,1.57.41.12,2.98,2.04,2.98,2.04,0,0-1.93.53-2.1.53-.18,0-4.6-1.11-5.07-1.4-.47-.29-2.85-.7-3.26-.88-.41-.17-2.04-1.16-2.21-1.22-.18-.06-1.34-1.11-1.34-1.11l-1.75-3.08-1.46-2.97s-.52-.94-.93-2.1c-.41-1.17-.58-1.17-.76-2.16-.17-.99.06-2.56,0-3.08-.06-.53-1.05-3.27-1.05-3.56v-1.28s-1.34-2.79-1.51-3.55c-.18-.76-2.1-2.27-2.1-2.27,0,0-2.33-2.45-2.74-2.51-.4-.06-1.57-1.4-1.8-1.45-.23-.06-.64-1.93-.88-1.99-.23-.05-.11-3.55-.11-3.55,0,0-.12-2.97-.18-3.26-.06-.29-1.34-2.68-1.63-3.03-.29-.35-2.1-1.28-2.62-1.63-.52-.35-2.56-.99-2.74-.99-.17,0-3.26-1.75-3.26-1.75,0,0-2.5-2.8-2.68-2.91-.17-.12-1.46-1.52-1.63-2.1-.17-.58-.23-1.86-.29-2.33-.06-.46.41-3.49.41-4.25s1.05-2.27,1.05-2.91,1.86-1.75,1.86-1.75c0,0,1.57-2.86,1.57-3.96s.76-2.92.76-3.09v-2.68c0-.23-.41-2.1-.41-2.1,0,0-.93-1.1-1.11-1.05-.17.06-.93,1.4-1.45,1.81-.53.41-1.81,2.16-2.33,2.45-.53.29-2.45.81-2.91.99-.47.17-.99.23-1.46.23s-.93-.87-.93-.87l.06-1.11s.58-.99.64-1.57c.05-.59.46-.99.46-2.04s.41-.99.35-2.91c-.06-1.93.18-1.17.06-2.28-.12-1.1-.06-1.04-.29-1.92-.23-.87.17-2.21.17-2.56s-.11-2.68-.17-2.97c-.06-.29.12-4.14.12-4.14l-.94-2.21-.87.55s-.76,2.77-.87,2.94c-.12.18-.35,2.62-.53,3.5-.17.87-.17,1.8-.23,2.21-.06.41-.93.99-.93.99,0,0-.24-1.34-.41-1.75-.18-.4-.64-2.97-.7-3.2-.06-.23-.35-2.15-.41-2.62-.06-.47-.81-2.68-.81-2.68l-1.23-.29.18,1.92.29,1.75s-.06,2.27-.06,2.62-.41,3.44-.81,5.24c-.41,1.81-1.23,2.39-1.46,2.68-.23.29-2.33,1.69-2.68,2.04-.35.35-1.86,2.39-1.98,2.68s-1.34.52-1.34.52c0,0,.81-1.39.93-2.09s.58-1.34,1.11-3.15c.52-1.8.23-1.1.23-1.69s.29-1.8.29-2.33-.29-2.09-.35-2.39c-.06-.29-1.63-3.32-1.63-3.32l-1.22-3.58c-1.23-3.58-.82-.61-.82-.61l-.35,2.5s-.4,2.92-.58,3.15c-.17.23-.76,3.26-.87,3.5-.12.23-1.05,1.86-1.05,1.86,0,0-1.05.06-1.28-.23-.24-.29.35-.64.29-1.87-.06-1.22.06-2.27-.24-2.85-.29-.58-.99-2.8-1.16-3.67-.17-.88-.06-2.97-.12-3.61-.05-.64.35-5.42.35-6.18s-.06-3.73-.06-4.02-.34-3.96-.52-4.72c-.17-.75-1.4-.87-1.4-.87l-.81,1.11s-.47,3.08-.47,3.26c0,.17-.12,3.2-.12,3.67v2.1c0,.23-1.34,1.8-1.51,2.03-.18.24-1.05,1.46-1.05,1.46,0,0-2.04,1.75-2.33,1.87-.29.11-2.56.93-2.56.93l.06-1.93.46-3.08.64-3.5s-2.15,1.28-2.39,1.4c-.23.12-1.51,2.45-1.68,2.56-.18.12-.53,1.93-.53,1.93l1.34,3.49s.64,2.45.64,2.68.12,4.43.12,4.43l1.75,1.98.4,2.5,1.87,2.92s.7,3.61.7,3.84,2.33,3.96,2.56,4.49c.23.52,1.69,5.76,1.69,5.76l2.85,5.71s1.23,3.44,1.28,3.96c.06.53,2.28,4.2,2.28,4.2,0,0,3.67,3.26,3.84,3.32.18.06,1.63-.99,1.63-.99,0,0,1.87-2.57,1.87-2.8s2.91-3.96,3.08-4.54c.18-.59,1.17-2.68,1.23-2.92.06-.23,2.5-2.33,2.5-2.33l1.98-2.5,4.49-2.68,1.75.58s-.18,2.51-.18,2.86-.76,2.56-.93,2.85c-.18.29-1.28,2.1-1.57,2.62-.3.53-.64,1.69-.82,2.1-.17.41-.17,3.26-.17,3.67s.23,3.03.23,3.38.7,3.09.7,3.26c0,.18,1.8,2.27,1.8,2.27,0,0,2.39,1.46,2.63,1.58.23.11,1.28.69,1.28.69l2.68.47s2.38.41,2.68.41,1.57.41,1.57.41c0,0,.12,2.62.12,2.79,0,.18-.06,1.69-.06,1.69,0,0-.99.12-1.46.06-.47-.06-2.33-.12-2.8-.29-.46-.18-3.08-1.05-3.49-1.17-.41-.11-1.63-1.51-1.63-1.51,0,0-2.1-.12-2.27-.12-.18,0-1.05.29-1.34.46-.29.17-1.75,1.17-1.75,1.17,0,0-1.22,1.93-1.46,2.39-.23.47-1.16,2.45-1.28,2.68-.12.23-.93,1.52-.93,1.52,0,0-3.15,1.8-3.2,1.98-.06.17-.88,1.45-1.23,1.92-.35.46-.93.93-1.16.99-.24.06-1.52.12-1.81.17-.29.06-1.86,1.05-2.27.99-.41-.05-2.33-.23-2.97-.29s-2.16-.17-2.51-.35c-.35-.17-1.57-.64-1.86-1.05-.29-.4-2.1-1.04-2.45-1.51-.35-.47-1.51-1.92-1.8-2.39-.29-.46-.88-1.34-1.11-1.8-.23-.47-1.16-3.32-1.28-4.14s-1.4-3.55-1.52-3.73c-.11-.17-1.86-4.95-2.15-5.36-.29-.41-1.28-1.86-1.81-3.61-.52-1.75-.93-3.09-1.16-3.9-.24-.82-1.28-2.74-1.46-3.15-.17-.41-1.05-4.48-1.05-4.66,0-.17-1.8-3.73-2.04-4.13-.23-.41-.46-1.87-.69-1.98-.24-.12-.7-1.69-.88-2.39-.17-.7-1.69-3.03-1.92-3.44-.23-.41-1.11-2.56-1.11-2.56,0,0-2.56-4.49-3.32-4.84-.76-.35-.46-2.04-.76-2.56-.29-.52-.17-2.91-.34-3.32-.18-.41-.7-2.33-1.05-3.38s-.18-1.75-.29-2.68c-.12-.93-.3-2.56-.3-3.26s.06-3.03.06-3.03c0,0,1.98-3.85,1.92-4.14-.05-.29,0-.87-.23-1.39-.23-.53.18-2.1.18-2.68s0-.99-.12-1.17c-.12-.17.12-3.09.12-3.38v-2.62l.05-2.15-.93-2.1-1.22-1.34s-2.21-.76-2.39-.93c-.17-.18-2.74-2.04-3.03-2.22-.29-.17-2.91-.93-2.91-.93l.47-2.74,3.02-.46,2.74.58,4.02.93,2.39,1.69,1.28.47,2.16,2.62s2.56,4.02,2.56,4.19c0,.18.76,4.37.76,4.84s.99,5.36.99,6.17.58,3.09.58,3.09c0,0,1.11-1.52,1.17-2.33.05-.82,1.04-1.86,1.22-2.56.17-.7,1.8-1.98,1.98-2.63.17-.64.93-3.43.93-3.96s.82-3.37.82-3.37l1.1-3.15-.29-4.02s.76-3.32.88-3.79c.11-.46,0-2.73,0-2.73,0,0,.52-3.09.52-3.62s.76-3.32.99-4.02c.23-.69,1.69-3.26,1.69-3.26l2.74-2.62,2.15-3.73,1.87-2.33,3.2-1.34s2.97-1.8,3.44-2.21c.46-.41,1.63-2.62,1.63-2.62l3.44-2.97,4.19-2.39,3.26-1.63,4.25-.7h4.78l4.25.64,4.84,2.16,4.13,2.62.7,1.11,10.5,16.61c-.13.06-.24.15-.25.31-.05.44-1.01.7-1.01.7v-1.75l-1.13-1.7-1.4-.53s-.75-.39-.48.35c.26.75.3-.26.48,1.1.02.14.05.29.09.45.04.12.08.24.12.36.27.74.73,1.52,1.04,2.02.07.11.13.2.18.28,0,.02.01.03.02.04-.03-.03-.06-.05-.09-.06-.03-.02-.05-.03-.08-.03-.06,0-.1.05-.12.21-.07.53-.77.61-.77.61l-.74-.91s-.26-.57-.35-.4c-.09.18-.74-.17-.74.35s-.4.27,0,.79c.39.52,1.13.92,1.44,1.44.3.53-.35.83-.4.7-.04-.13.14-.52-.83-.35-.96.18-2.97.26-2.97.26v-1.09s.79-.61,0-.65c-.78-.05-2.31-.4-2.57-.4s-2.36-.3-2.54-.3c-.17,0-.7.35-.3.7.39.34.65-.66,1.39.43.75,1.09,2.06.66,2.8,1.18.74.53,1.66.4,1.68.48.02.09-.54,1.49-.54,1.49,0,0-.22.04-1.58,0-1.35-.05-3.23-.7-2.92-.42.3.29.78,1.38.96,1.51.17.13.22.35.7.57.48.22,1.83.13,2.4,0s.61-.66.98-.44c.37.22.81,1.18.98,1.44.18.27,1.62.18,1.62.18l.44,1.61s-1.79,1.05-1.97,1.14c-.17.09-2.01,1.62-2.27,1.84-.26.21-.83,1.17-.83,1.17l-.79,1.58-.21.26s1.48.04,1.74,0c.27-.04,1.31-.13,1.4-.26.09-.13.92-.88.92-1.09s.74-2.45.83-2.67c.09-.22,1.18-1.97,1.18-1.97l1.09-.65.77-.04.26.04-.37.65-.92,1.71-.13,1.57.26,1.27h.35l.55-1.01s.58-2.27.63-2.49c.04-.22.52-1.4.52-1.4l-.05-.19,1.41.19.43-.26h.35s.92.35.96.61c.05.27.22.92.31,1.47.09.54.66,2.73.79,3.08.13.35.26,1.04.48,1.46.22.42,1.26,1.38,1.26,1.38l1.36-.18.48-1.2s-.04-.89,0-1.03c.04-.13-.39-1.39-.39-1.39l-.66-1.05-.48-.61s-.74-.88-.79-1.05c-.04-.18-.89-.88-.89-.88l-.46-.87.22-.22s.39-.48.7,0c.3.48.57,1.18.91,1.71.35.52.35.35.88.85.52.5,1.18.54,1.22,1.07.05.52-.44,1.35.22,1.4.66.04,1.22-.18,1.31-.31.06-.09.21-.59.3-.88l7.51,11.89.87,1.38s.69,2.15.81,2.56c.12.41,2.04,2.45,2.21,2.62.18.18,2.39,1.34,2.39,1.34,0,0,1.87,1.87,1.93,2.04.05.18,1.98,1.87,2.15,2.16.18.29.76,1.28.76,1.28,0,0,2.56,1.57,3.03,2.1.46.52,1.1,1.04,1.28,1.39.17.35,1.11,2.22,1.11,2.22,0,0,2.15,6.46,2.15,6.87s.41,4.31.41,4.54Z"/>
  <path class="cls-1" d="M65.44,147.24v-5.24s-1.86-5.24-1.86-5.71-2.33-7.57-2.33-7.57l-2.68-7.11-2.68-7.69-1.05-3.5s-.76-2.01-.7-2.16.58-1.63.64-2.04.2-1.63.2-2.1-.2-2.42-.26-2.68-1.08-1.63-1.17-1.78-2.07-1.51-2.1-1.6-1.98-1.6-1.98-1.6l-1.11-.93s-1.46-.38-1.6-.44-2.3-.29-2.56-.35-2.01-.44-2.01-.44l-.96-1.02s-.03-1.17,0-1.28.76-.9.96-.9,2.33.41,2.45.41,2.36-.23,2.36-.23l.96-.44.29-.9s.87-3.93.87-4.02-.26-1.83-.26-2.13-.15-1.86-.15-2.04-.29-2.04-.32-2.16-.64-1.92-.64-2.01.26-1.43.26-1.51.06-1.57.06-1.57l.58-2.91s.26-1.17.29-1.6.15-2.39.17-2.48l.5-1.49c.03-.09.15-2.24.15-2.24l.2-1.11s.35-3.38.35-3.64.12-1.54.12-1.72-.06-1.49-.06-1.6-.2-1.49-.35-1.69-1.19-1.11-1.19-1.11c0,0-1.22-1.05-1.75-1.19s-2.59-.64-2.59-.64h-1.51c-.17,0-1.28.41-1.51.87s-.93,1.69-.93,1.69c0,0-.15,1.54,0,1.78s.52,1.34.67,1.49.32.87.44,1.25.09,1.51.32,1.6.06.12.23.79.12,1.83.17,2.01-.2,2.74-.17,2.85-.12,2.24-.2,2.48-.03-.06-.29.73-1.05,1.78-1.05,2.21-.18.73-.18.73c0,0-1.39,2.94-1.48,3.06s-1.05,1.28-1.11,1.46-.87-.15-.26.84,1.08,2.16,1.17,2.3-.06-.12.12.44-.84,4.57-.84,4.66-.06,1.02-.2,1.14-2.16.03-2.16.03c0,0-.5-.82-.47.32s-.44.82-.15,1.89.5,1.14,1.14,1.78,1.25.99,1.37,1.17.17.79-.06,1.11-.79.23-.82.35-2.21.44-2.39.2-1.11-.79-1.63-2.18-1.05-2.01-1.11-2.42-.47-1.95-.29-2.07,1.6-.99,1.95-1.19,1.11-.73,1.46-.84,1.92-1.17,1.92-1.17v-1.51l-.7-1.28-.67-1.6-1.54-.58s-2.3.38-2.33.47-1.81,1.28-1.89,1.57-1.25.7-1.51,1.86-.44,1.43-.58,2.18-1.11,1.92-1.08,2.3.84,3.09.84,3.17-.9,2.18-.73,2.56.58,1.6.99,2.62.9,2.18,1.19,2.91.26.9.58,1.25,2.65,3.52,2.65,3.52c0,0,1.34.9,1.66,1.31s1.05.82,1.6,1.6,1.46,1.54,2.01,2.07,4.57,2.59,4.83,3.12.5.47.82,1.72.41,2.33.64,3.06.7,1.95.7,2.56-.09,1.49-.03,1.57.76,6.03.84,6.23.15,2.24.15,3.03-.29.64-.17,1.25.03,1.25.09,1.43,1.37,7.08,1.4,7.22.09.96.06,2.24-.41,2.48-.41,2.65.23.96.26,1.19.76,5.27.76,5.71,0,1.69.09,2.71-.5-.09.41,3,.99,3,1.11,3.44.67,1.14.79,1.46,1.08.44,1.28.5.93-.15,1.51-.17,1.11-.35,1.51-.7.84-.9.99-1.31.17-1.51.17-2.18-.2-1.72-.2-1.95-.35-1.66-.35-1.66c0,0,.73-1.95.9-2.16s.55-.93.99-1.22,1.11-.93,1.4-1.02.67-.55,1.49-.52,1.4-.06,1.83-.06,1.05-.09,1.43-.12,1.02-.23,1.49-.41,1.54-.23,1.54-.23Z"/>
  <path class="cls-1" d="M57.5,162.61l-2.27,1.57s-.79.96-.87,1.18-.66,1.35-.66,1.35c0,0,.26.92.52,1.22s.66.74,1.38.7,2.6-.52,2.99-.74,2.45-.83,2.71-1.14,1.09-1.14,1.49-1.49,1.4-1.18,1.88-1.62,1.4-1.7,2.05-2.36,2.01-2.53,2.23-2.8.87-2.71.87-3.01-.92-2.75-.92-2.75l-1.14-2.18-2.33-1s-2-.17-2.13-.17-1.57-.04-2.14,0-2.45.13-2.67.35-1.31.87-1.4,1.49-.52.66-.39,1.62-.13.96.44,1.88.7,1.49.83,1.97,0,.35.22,1.05.17,1.75.13,2.45-.52.96-.57,1.31-.26,1.14-.26,1.14Z"/>
  <path class="cls-1" d="M36.75,75.24s7.34-8.83,1.57-18.52h-9.61s1.25,10.22-2.39,15.64l10.43,2.88Z"/>
  <path class="cls-1" d="M24.26,71.75l2.07-15.03-14.48-4.63s-8.48,6.9-2.62,19.22l15.03.44Z"/>
  <path class="cls-1" d="M68.35,165.65s.52,2.1.58,2.27.89,2.74.89,2.74c0,0,.51,2.1.63,2.33s.82,2.62.93,2.91.52,2.04.58,2.21.23,1.69.23,2.21.58,5.3.58,5.3v14.85l-.87,2.97-.12,1.34h-2.39l-2.8-.76s-2.33-1.46-2.85-1.69-3.32-1.34-3.32-1.34c0,0-2.1-2.1-2.27-2.33s-3.5-2.33-3.5-2.33h-2.39l-1.57.76-.87,1.46-1.17,3.2v5.77s.7,2.8.87,2.97,1.4,2.62,1.4,2.62c0,0,1.57,2.27,1.98,2.39s3.79,1.28,3.79,1.28c0,0,3.73.7,4.54.7s4.02-.58,4.31-.58,1.86.17,1.86.17l-.99,2.91-1.22,3.15-3.2,2.1s-.47,1.28-1.28,1.98-3.5,1.46-3.5,1.75-2.04,1.34-2.16,1.57-1.81.87-1.81.87c0,0-2.27,1.69-2.39,1.86s-2.85,1.92-2.85,1.92l-3.5,3.03s-2.39,3.32-2.45,3.5-1.69,2.5-1.69,2.8-1.22,3.61-1.22,3.9.23,2.1.23,2.1l1.11,5.07s.7,2.27.93,2.45,1.17,1.05,1.34,1.11,1.98,2.1,2.21,2.33,1.92,1.11,2.1,1.11,2.1.35,2.1.35c0,0,1.46.23,1.86.35s3.03-.17,3.44,0,1.81,0,2.04.03,2.04-.14,2.33-.2,1.92-.58,2.45-.82,2.16-.87,2.5-1.11.76-.52,1.63-1.17,2.74-2.33,2.91-2.5.87-1.51,1.05-1.86.76-1.98,1.05-2.21,1.22-1.75,1.51-1.98,3.03-4.78,3.03-4.78c0,0,1.4-3.26,1.57-3.55s.82-2.85.87-3.03.29-3.26.35-3.5-.41-3.9,0-4.49,1.05-3.73,1.17-4.08.76-3.67.87-4.14.93-4.49.93-4.49c0,0-.17-2.85,0-3.03s.93-1.88.93-1.88c0,0,6.17-1.15,6.52-1.26s5.83-1.17,6.17-1.22,1.98-.35,2.27-.35,1.63.06,1.81.06,1.46-.17,1.57.29,0,3.2,0,3.2c0,0,.22,2.74.05,3.44s-1.04,4.66-1.1,5.59-.23,3.03-.17,3.26-1.11,4.31-1.11,4.31l-1.34,3.38s-1.22,1.34-1.57,1.98-1.81,2.1-2.16,2.56-1.69,1.81-1.75,2.04-1.81,1.11-2.16,1.98-1.98,1.69-2.04,2.27-.58,1.63-.58,2.1-.82,1.28-.52,2.16.29,2.04.52,2.68,1.28,1.4,1.28,1.4c0,0,.12.06,1.11.06s.99-.47,3.38.12,3.44,1.05,3.61,1.05,2.91-.35,3.2-.47,2.27-.64,2.91-.7,1.34.06,3.38-.35,3.03-1.28,3.32-1.34,2.5-.41,2.68-.47,1.75-.64,1.75-.64c0,0,.29.35.29.7s-.06.12.52.29,2.45,0,2.45,0c0,0,.7-.23.87-.58s.99-1.51,1.17-1.81.35-1.86.41-2.04,0-1.81,0-1.81l-2.8-3.2s.29-.82-.29-1.92-.87-1.98-.87-2.39-.35-3.9-.41-4.72-.87-3.9-.87-4.72-.47-4.66-.47-4.83-.23-5.3-.23-5.48-.52-6.64-.52-6.64v-4.66l.64-6.76s.58-4.83.82-5.59,2.1-5.07,2.1-5.07l1.17-4.25,1.77-3.84,1.26-3.03s3.09-4.14,3.09-4.31,1.86-5.24,1.92-5.48.99-3.9,1.05-4.14.7-4.49.7-4.83.17-3.5,0-3.67-1.81-3.5-1.92-3.84-1.34-2.04-1.46-2.27-4.6-2.62-4.6-2.62l-3.9-.52h-3.96l-5.27.76-5.39,2.5s-2.21,3.26-2.27,3.61-1.51,5.36-1.51,5.36c0,0,.35,3.03.52,3.67s.12,9.03.12,9.03c0,0,.35,4.14.41,4.49s0,3.2.06,3.44.29,2.91.47,3.2.17,3.09.35,3.55.12,3.09.35,3.15.93,9.15.99,9.32.35,2.56.35,2.56l-.76,1.57s-3.44.76-3.73.76-3.67.17-3.67.17c0,0-1.86.49-2.5.74s-2.97.43-2.97.43l-1.05.12-1.34.23s-.58-1.22-.52-1.46.29-2.27.7-3.32.76-3.84.87-4.83.47-3.9.47-4.43-.17-3.9-.17-4.19.23-4.08.29-4.31-.12-3.67-.12-3.67l-.23-3.96-.29-3.5-.93-2.97-.47-2.8-1.98-1.98-1.75-1.22-2.5-.47-2.21.06h-2.91l-3.09.64-.99.7.41,1.11Z"/>
  <path class="cls-1" d="M132.78,197.46l5.13-1.17s2.8-2.1,3.03-2.45.93-2.68,1.17-3.03,1.17-4.19,1.17-4.66-.93-4.18-.93-4.18l-3.5-2.11-3.38-1.05h-6.41l-3.5,1.98-3.15,3.84v6.06l1.28,4.89,2.87,1.17,4,.7h2.21Z"/>
  <path class="cls-1" d="M121.54,203.97l3.41-1.18s2.23-.31,2.67-.35,5.37-.17,5.55-.17,4.11-.17,4.63,0,2.75.52,2.75.52l1.53,1.53.57,3.5s-.66,3.19-.7,3.5-.57,1.92-.7,2.18-.79,6.73-.79,6.73c0,0-.48.92-.48,1.83s-.35,1.75-.22,2.8.39,2.67.39,3.71-.04,3.28.09,3.36.31,2.97.31,2.97c0,0,.31,3.63.48,3.71s.92,1.18.92,1.53.17,2.27.26,2.45.61,1.62.44,2.01-.83,1.66-.92,2.01-1.14,2.18-1.35,2.71-1.83,1.18-1.83,1.18h-1.97l-2.8.39h-4.63s-2.53-.66-2.75-1.05-2.05-3.19-2.23-3.98-.66-3.19-.66-3.63.31-5.07.48-5.42.61-2.75.87-3.54.57-4.98.57-4.98c0,0,.44-5.68.52-6.2s.35-3.41.22-4.37-.35-3.23-.61-4.11-1.4-2.45-1.62-3.01-2.75-3.15-2.75-3.15l-1.44-1.99,1.79-1.51Z"/>
  <path class="cls-1" d="M186.13,220.99c0-.41-.94-3.32-1.05-4.14-.12-.81-1.34-3.55-1.4-3.96s-2.68-1.4-3.03-1.57c-.35-.18-3.26-3.21-3.26-3.38,0-.18,1.98-2.86,2.27-3.73.29-.87,2.21-4.6,2.21-5.24s1.81-4.08,1.81-4.08c0,0-1.05-7.69-1.11-7.98-.06-.29-1.22-2.91-1.69-3.32-.46-.41-3.08-3.38-3.61-3.61-.52-.24-3.43-1.46-4.54-1.81-1.11-.35-3.9-.7-4.66-.81-.76-.12-2.22-.06-4.2-.24-1.98-.17-5.3-.11-5.3-.11,0,0-3.32-.06-3.96-.06h-2.62l-4.19-.06-2.63-.23,2.98,11.47v51.96l-3.67,10.79s2.44-.07,2.62,0c.17.08,4.48-.59,4.72-.65.23-.06,4.48-.58,4.89-.64.41-.06,5.07-.58,5.24-.58.18,0,6.29-.18,6.29-.18l9.79-3.84,1.92-1.28s2.74-2.92,2.86-3.38c.11-.47,1.63-3.03,1.63-3.38s1.05-3.09,1.05-3.61,1.63-4.78,1.63-4.96c0-.17-.99-6.99-.99-7.39ZM160.67,207.76c0-.4.93-16.83.93-16.83l1.28-2.1,2.92-.7,2.97.29s.46,2.1.7,2.45c.23.35.99,4.43,1.04,4.72.06.29.47,2.56,0,3.32-.46.76-2.09,2.27-2.09,2.45,0,.17-.24,1.74-.24,1.74,0,0-2.05.99-2.48,1.69-.43.7-1.3,1.98-1.48,2.33-.17.35-1.05.64-1.05.64h-2.5ZM174.48,224.19c-.06.82-1.29,3.44-1.29,3.73s-1.54,2.74-1.54,2.74c0,0-3.41,1.86-3.58,2.09-.18.24-3.67,0-3.67,0l-2.74-2.5s-.41-3.55-.41-4.25.18-4.31,0-4.72c-.17-.41,0-2.51,0-2.51l1.11-2.5,6.35-.88s3.96,1.52,4.25,1.69c.29.18,1.11,2.45,1.11,2.68s.46,3.61.41,4.43Z"/>
  <path class="cls-1" d="M174.48,224.19c-.06.82-1.29,3.44-1.29,3.73s-1.54,2.74-1.54,2.74c0,0-3.41,1.86-3.58,2.09-.18.24-3.67,0-3.67,0l-2.74-2.5s-.41-3.55-.41-4.25.18-4.31,0-4.72c-.17-.41,0-2.51,0-2.51l1.11-2.5,6.35-.88s3.96,1.52,4.25,1.69c.29.18,1.11,2.45,1.11,2.68s.46,3.61.41,4.43Z"/>
  <path class="cls-1" d="M170.51,198.91c-.46.76-2.09,2.27-2.09,2.45,0,.17-.24,1.74-.24,1.74,0,0-2.05.99-2.48,1.69-.43.7-1.3,1.98-1.48,2.33-.17.35-1.05.64-1.05.64h-2.5c0-.4.93-16.83.93-16.83l1.28-2.1,2.92-.7,2.97.29s.46,2.1.7,2.45c.23.35.99,4.43,1.04,4.72.06.29.47,2.56,0,3.32Z"/>
  <path class="cls-1" d="M199.03,197.34h1.22s.58-.23.84-.32,1.31-.26,1.37-.38.5-1.08.64-1.25,1.31-1.31,1.49-1.57.64-1.22.76-1.66.29-1.95.38-2.24.17-1.57.17-1.81-.67-2.21-.67-2.21l-.55-1.89s-.82-1.37-.87-1.51-1.19-1.02-1.34-1.11-1.49-.67-1.49-.67l-2.1-.41h-2.16l-2.13-.15-2.62.67-1.43,1.15-1.81,1.91s-.76,1.17-.76,1.28-.5,1.37-.5,1.66-.23,1.92-.23,1.92c0,0-.06,1.57,0,1.75s.26,2.07.38,2.33.12.58.47.93,1.02.93,1.34,1.19.76.73,1.22,1.14,1.72.7,1.98.96,1.14.47,1.49.58,2.16.38,2.43.41.77.09,1,0,1.46-.7,1.46-.7Z"/>
  <path class="cls-1" d="M185.98,205.87l2.27,5.33s2.62,3.23,2.71,3.5.44,4.28.44,4.63v4.8c0,.18-.87,6.65-1.05,6.91s-.52,3.58-.52,3.93-1.75,6.47-1.57,6.82.44,3.76.44,3.76c0,0,.79,2.97.96,3.41s1.49,2.53,1.75,2.8,4.37.52,4.37.52c0,0,1.22.26,2.01.35s3.58-.44,4.19-.61,1.66-1.14,2.27-1.66,1.49-1.57,2.1-1.83,1.4-1.75,1.66-2.36.7-3.32.44-3.93-1.66-2.53-1.83-4.19-.79-3.32-.7-4.54-.79-4.81-.79-5.42.09-3.77,0-3.94-.7-4.8-.7-5.15-.09-4.37-.09-4.37c0,0,.52-2.18.7-2.71s.52-2.18.87-2.53,1.22-2.71,1.22-3.06-.35-2.45-.35-2.45l-1.83-1.68h-4.11l-4.27-.68-6.66.68-3.41,1.33-.52,2.36Z"/>
  <path class="cls-1" d="M229.76,232.32l-1.25-.99s-.35-.64-.41-.84-.58-1.54-.58-1.83-.73-2.3-.73-2.3l-.82-2.62-1.54-2.04-1.86-.93-1.72-.61h-2.1l-3.09,1.25s-2.3,1.92-2.36,2.04-1.78,2.8-1.78,2.8l-1.22,2.56-.7,4.19s.44,1.37.52,1.86.7,2.53.96,3.06.84,2.18.96,2.5,1.43,1.81,1.49,2.04,3.73,3.9,3.93,3.99,2.04,1.72,2.21,1.83,1.92.64,2.18.73,2.18.61,2.62.82,2.42.7,2.83.82,2.01.44,2.45.44,6.7.5,6.7.5c0,0,.64-.15,2.13-.2s3.73-.5,3.96-.55,1.46-.73,1.89-.87,1.51-.99,2.16-1.14,2.01-.99,2.18-1.14.9-.96,1.19-1.19,1.83-1.78,1.92-1.83,3.15-3.82,3.15-3.82c0,0,.64-1.28.73-1.66s.38-2.18.41-2.39-.03-2.16,0-2.39-.73-2.59-.82-2.94-.7-2.16-.7-2.16c0,0-2.21-4.28-2.21-4.4s-1.05-1.78-1.11-2.01-1.6-1.92-1.6-1.92l-1.89-1.11s-3.76-3.64-3.76-3.73-2.85-2.53-3.09-2.91-1.54-1.95-1.6-2.1-2.36-1.72-2.36-1.72l-2.13-1.28-.93-.99-2.68-2.1s-1.34-1.83-1.43-1.98-.96-1.86-1.08-2.04-1.51-1.75-1.51-1.75l-.52-2.77s-.09-2.91-.09-3.09.17-2.07.2-2.21.47-1.54.73-1.66,1.49-1.02,1.57-1.08,1.72-1.08,1.89-1.08h2.36c.29,0,.96,0,1.22.23s1.31,1.17,1.49,1.49.67,2.07.84,2.53.58,1.66.7,1.98.23,1.86.32,2.33-.17.99.29,2.16.84,1.83,1.28,2.48,1.75,2.04,1.83,2.21,1.05.64,1.81.79,1.89,0,3,.03,1.75-.17,2.42-.47,1.43-1.31,1.95-1.46,1.28-1.25,1.4-1.31.96-1.11,1.31-1.49.35-.73.76-1.54,1.02-1.66,1.11-2.18.2-.7.12-1.92-.23-3.03-.32-3.58-.32-1.98-.5-2.27-.73-1.6-.84-1.95-2.48-3.03-2.48-3.03l-2.21-2.68s-2.77-1.6-2.85-1.69-2.71-1.37-2.71-1.37l-3.38-1.08-4.95-.55-4.05-.58-7.72,1.14-2.07-.12-2.77,1.28-3.32,1.31-.93,1.78-1.37,1.57-1.34,2.56-1.43,3.26s.03,1.53.03,1.89-.17,3.01-.17,3.01c0,0,.41,4.08.47,4.17s.61,1.69.82,2.21,1.08,1.43,1.34,1.98.76.9.93,1.22,2.16,4.22,2.16,4.22c0,0,1.69,1.83,2.24,2.39s2.13,1.83,2.13,1.83l.9,1.14,3.96,3.7,1.6,2.53s1.08.7,1.31.87,2.01,1.6,2.18,1.83,2.98,3.2,2.96,3.23.91,2.5,1,2.71,1.05,1.66,1.17,1.95.17,1.78.23,2.16.12.96-.26,1.46-1.4.47-1.75.73-1.72.47-1.72.47l-1.28.12-.52-.73Z"/>
  <path class="cls-1" d="M262.38,191.81l-1.75-3.84-.47-3.96v-4.89l1.11-4.66,1.11-1.28s2.21.35,2.68,0,3.03.7,3.03.7c0,0-.12.7,0,1.28s.12,4.31.47,4.43,0,5.94,0,5.94l-1.28,3.03-1.51,2.56-3.38.7Z"/>
  <path class="cls-1" d="M333.91,221.04c0,.47-.75.7-1.1.82-.35.12-1.11.06-2.39.06s-1.63-.06-1.63-.06h-2.16c-.66,0-2.13-.13-2.52-.16-.01-.01-.02,0-.02,0-.03-.01-.05-.01-.08-.01-.05-.02-.1-.03-.15-.03-.04-.01-.08-.02-.11-.02-.11-.03-.21-.05-.31-.06-.13-.03-.26-.05-.38-.07-.07-.02-.13-.03-.19-.04-.11-.02-.22-.04-.32-.06-.2-.04-.39-.07-.54-.1-1.38-.26-2.97-.56-3.07-.56-.17,0-1.16.12-1.69.12s-1.63.52-1.92.64c-.29.12-1.16.35-1.16.35l-1.34,1.65-.53,1.67,1.52,2.04.07.03,2.2.96s3.96,1.34,4.25,1.46c.29.11,1.4,1.16,1.4,1.16,0,0,.03.36.04.75.01.43.02.91-.04,1-.12.17-.88.58-1.17.7-.29.11-1.19,2.62-1.19,2.62l-.03,1.16s.06,2.04,0,2.22c-.06.17-.18,1.34-.29,1.57-.12.23-1.11,1.4-1.52,1.98-.4.58-1.92.06-2.38,0-.47-.06-1.58-1.11-2.45-2.5-.87-1.4,0-1.52,0-1.75s-2.39-1.75-2.56-1.81c-.18-.06-.99.24-1.29.29-.29.06-.69.99-.99,1.17-.29.17-2.21.35-2.62.35s-1.16-.87-1.34-1.17c-.1-.17-.27-.59-.38-.9-.08-.21-.14-.38-.14-.38l.52-2.04s.88-2.68.88-2.85c0-.07.18-.25.41-.46.39-.34.93-.76.93-.76,0,0-.88-2.16-.99-2.39-.12-.24-.64-1.46-.88-1.46s-2.85.06-3.38.12c-.52.06-1.98.58-2.56.75-.55.17-1.06,1.33-1.3,1.65-.02.02-.03.03-.04.04-.23.24-.76,1.75-1.11,2.1-.35.35-1.04,1.22-1.45,1.75-.41.52-1.87,2.45-1.87,2.45,0,0-.46.4-1.07.83-.67.48-1.51,1-2.07,1.03-1.05.06-.82-.52-1.63-1.63-.82-1.11-.29-1.81-.47-2.33-.17-.53.93-1.63,1.28-2.51.35-.87.41-1.16.12-1.34-.29-.17-.47-.52-1.81-1.39-1.34-.88.06-1.4-.17-2.33-.23-.94,1.11-1.64,1.11-1.81,0-.18,1.74-.64,1.98-.82.04-.03.13-.07.26-.11.01,0,.02,0,.03,0,.64-.19,2.03-.48,2.27-.57.13-.05.73-.15,1.37-.24.81-.11,1.7-.2,1.83-.17.24.06,2.04-1.98,2.1-2.16.06-.17,0-.99,0-.99,0,0-2.1-1.86-2.27-2.04-.18-.17-3.32-.75-3.61-.93-.3-.17-3.44-1.51-3.85-1.75-.34-.19-2.28-.39-2.9-.44h-.01c-.11-.01-.18-.02-.18-.02,0,0-2.45-.67-3.38-.99h-.01c-.06-.02-.11-.04-.16-.06-.76-.29-.93-1.75-.99-2.04s.64-1.11.64-1.11l1.4-.52,1.81-1.05,1.57-.58,2.27.11,1.92-1.1v-.99l1.57-1.05h2.04l1.87,1.86s.58,1.77.76,2.38h0c.02.1.04.16.05.19.06.23.94,1.1.94,1.1l1.43.82.9.52,1.45,2.22,1.75,5.12,1.16,3.5,1.99.29,1.63-.41s-.24-3.09-.36-3.26c-.01-.01,0-.03,0-.06,0,0-.01-.01,0-.02.04-.44.83-2.4.93-3,.01-.05.02-.1.01-.13-.06-.34-.06-1.39-.18-1.8-.11-.41-.7-2.91-.76-3.67s-.28-.53-.28-.53c0,0-.3-2.97-.65-3.78-.16-.39-.01-.86.19-1.26.21-.44.49-.81.46-.9-.06-.17.52-2.21.52-2.21,0,0,.99-2.33,1.16-2.91.18-.59,1.4-1.69,1.4-1.69l1.81-1.46s2.68.76,2.91.88c.23.11,2.21-.35,2.21-.35,0,0,1-.82,1.29-.94.29-.11,1.8-.46,1.8-.46l.35.64s.47,2.39.47,2.79-.18,1.34-.18,1.34c0,0-.03.09-.08.23-.16.48-.56,1.58-.97,1.99-.52.52-.64.64-.87.99-.23.35-1.86,1.51-2.56,1.98-.7.46-2.04,1.92-2.45,2.27-.05.04-.11.11-.17.2t-.01.02c-.12.17-.25.41-.39.69-.43.83-.93,1.93-1.12,2.12-.04.04-.09.12-.16.23,0,.01-.01.01-.01.02-.48.82-1.59,3.23-1.69,3.48-.12.29.17,3.61.17,4.08s1.52.17,1.69.17c.18,0,2.51-.12,3.03-.17.18-.02.35-.11.5-.24.3-.23.55-.58.78-.81.35-.35,1.63-.88,1.98-1.4.35-.53,2.1-1.57,2.68-2.74.49-.97,2.17-1.21,2.93-1.34.15-.02.27-.04.33-.06.41-.11,2.68-.11,2.86-.11.17,0,.87,1.69.87,1.69l.24,2.97,1.04,1.39s1.34.06,1.58.06,2.56,1.58,2.68,1.75c.11.18.46,2.39.46,2.85Z"/>
  <path class="cls-1" d="M351.13,213.01c-.27-.56-3.24-1.55-3.24-1.55,0,0-1.92-.52-3.32-.78-1.4-.27-2.18-.35-2.18-.44s.09-3.06,0-3.41c-.09-.35-.44-1.57-.53-1.92-.08-.35-1.22-1.84-1.22-1.84,0,0-1.4-1.04-1.92-1.13-.53-.09-4.28,0-4.81,0s-4.98,1.22-4.98,1.22c0,0-3.23,1.84-3.67,2.01-.43.18-3.76,2.01-4.02,2.1s-3.81,3.93-3.81,3.93l-1.69,1.4h-1.57s1.92-1.4,2.35-2.36c.44-.96,1.23-1.75,1.49-2.53.26-.79,2.36-2.36,2.36-2.36,0,0,4.19-2.01,5.33-2.89,1.14-.87,1.83-.61,2.45-1.66.61-1.05,1.66-.7,2.18-1.31.52-.61,1.64-2.88,1.64-2.88,0,0-.15-1.92-.07-3.32.09-1.4.09-2.01,0-3.06-.08-1.05-.35-.87-.61-1.4s-1.13-.79-2.1-1.22c-.96-.44-1.31-1.84-1.22-2.8.09-.96.09-2.62,0-2.84-.09-.23-1.31-2.66-1.66-2.76-.35-.1-1.31-.34-1.75.01-.43.35-2.36-.09-3.4,0-1.05.09-2.19,1.4-2.89,1.75-.7.35-1.22,1.83-2.18,2.27-.96.44-2.19.35-2.8.26-.61-.09-2.97-.79-3.23-1.05-.26-.27-2.19,1.84-2.45,2.01-.26.18-1.83,3.06-2.1,3.32-.26.26-1.74,5.07-1.74,5.07l-.88,5.77-.13.1s-.17.09-.25.15c-.07.05-.13.1-.2.1s-.17.01-.17.01c0,0-.41-.07-.47-.13s-.35-.13-.52-.33c-.18-.21-.08-.14-.21-.34-.13-.2-.35-.51-.6-.84-.24-.34-.29-.43-.37-.59-.09-.16-.21-.26-.21-.26,0,0-.61-1.75-.68-1.75-.08,0-.47-.11-.58-.3-.12-.19-.24-.19-.37-.41-.13-.22-.3-.7-.3-.7l-.06-.44.26-.3s.38-.21.45-.28.54-.26.54-.26l.7-.54s.54-.14.55-.19c.02-.04.32-.09.48-.23.16-.15.26-.16.26-.28,0-.11.19-.14.21-.38.01-.23.06-.51.01-.75-.04-.25-.1-.76-.11-.92-.02-.16,0-.57-.02-.61-.01-.05-.14-.63-.26-.78-.12-.14-.79.03-.83.05-.04,0-1.12-.03-1.12-.03,0,0-.29.17-.41.23s-.42.47-.48.56c-.06.08-.23.49-.28.65-.04.16,0,.6,0,.79s.18.58.16.86c-.01.27-.2.58-.23.64-.03.06-.84.39-.84.39,0,0-.67.36-1.02.36s-.53-.21-.63-.27c-.1-.06-.39-.57-.39-.57l-.27-.63-.05-.52.2-.44.36-1.07.51-.05s.57-.07.76-.28c.19-.2.34-.27.35-.33.02-.06.22-.55.22-1.06s-.03-.41-.03-.64-.07-.69-.17-.82c-.11-.13-.37-.32-.6-.39-.23-.08-.53-.21-.63-.22-.1-.02-.73.13-1.18.17-.45.05-.59.16-.77.21-.17.04-.3.45-.36.54-.06.08-.05.51-.05.56,0,.06.11.44.32,1.64.22,1.19-.07.56-.13.61-.06.04-.91.14-1.03.17-.12.03-.28.02-.32,0-.05-.01-.66-.3-.7-.35-.04-.04-.5-.67-.63-.77-.13-.1-.23-.2-.35-.38-.11-.17-.4-.71-.4-.77s.27-.82.27-.82l.5-.26s.91-1.24.97-1.37.15-.51.12-.58c-.03-.07-.01-.77-.04-.87-.03-.1-.37-.77-.41-.85-.05-.07-.64-.46-.69-.49-.04-.03-1.1-.24-1.19-.24-.04.02-.48.16-.98.3-.49.13-.43.68-.49.74s-.19.99-.19,1.18.25.9.22,1.18c-.03.27-.26.43-.41.42-.15,0-.48-.28-.61-.31-.13-.03-.9-.52-.9-.52,0,0-.53.09-.75.04-.22-.04-.22-.01-.33-.14-.12-.13-.73-.6-.8-.7-.08-.1-.03-.31-.05-.44-.01-.13-.3-.78-.4-.92-.11-.13-.02-1.32-.03-1.48-.02-.16.37-.7.48-.85.1-.14-.08-2.21-.08-2.21,0,0-.71-.6-.84-.6-.12.02-.61.5-.7.59-.09.08-.86,1-1.28,1.29-.42.29-.55.38-1.09.47-.54.09-.88,0-1.11-.05-.23-.04-1.27-.1-1.33-.08-.05.01-.16.54-.17.64-.01.1-.1.99-.2,1.1-.11.12-.6.69-.69.78-.09.08-.16.91-.19,1-.03.09-.07,1.15-.1,1.37-.03.22-.44.7-.44.7,0,0-.29.52-.52.87-.23.35-.23.88-.23,1.05v.64s.4,2.33.4,2.51c0,.17,1.81.75,1.81.75l1.05.53s.99,0,1.22-.12c.23-.11.47-.23.7-.81.23-.59-.17-1.05,0-1.34.17-.29-.17-.94,0-1.17.17-.23,1.11-1.86,1.4-1.98.29-.12.81.12.81.12l.94.52,1.04,1.05s1.46.47,1.75.58c.29.12.88.76.7,1.17,0,0-.93.23-1.22.23s-.29,0-.76-.06c-.47-.06-.35,0-.64,0s-.76.12-1.05.18-.76.46-.76.46l-.11.88s.06.81.06.99c0,.17.64.76.81.93.18.17,1.69.06,1.69.06l1.4-.47s1.22-1.16,1.34-1.4c.12-.23.58-1.1.58-1.1l.76-.24,1.22.41.64,1.11.53.7-.18,1.28-.17.06c-.18.06-1.05.11-1.05.11,0,0-1.63.47-1.81.59-.17.11,0,1.74,0,1.74l.24.59.52.75h.76l2.04-.58.23-.93v-.93l.93-.35h.99l1.11.35s.81,1.63.93,1.8c.12.18.99,2.22.99,2.22l.76,2.21.52,1.34s1.63,1.51,1.75,1.92c.12.41-.17.76-.41.93-.23.18-1.22.24-1.22.24l-.93-.53s-1.17-1.51-1.23-1.74c-.05-.24-2.56-2.74-2.73-2.74-.18,0-3.32-.82-3.85-.93-.52-.12-2.5-.3-2.91-.35-.41-.06-1.81-.64-2.51-.64s-3.9.35-3.9.35c0,0-3.09,1.22-3.38,1.33-.29.12-1.69,1.87-1.69,1.87,0,0-1.98,1.4-2.15,1.51-.18.12-2.62.53-2.92.64-.29.12-1.74.94-1.92,1.11-.17.18-.99,2.21-1.16,2.39-.18.17,1.22,1.46,1.22,1.46l.93,2.21s-1.22,2.39-1.57,2.91c-.35.53-.58,3.5-.58,3.5l1.51,2.04s4.84-.18,5.01-.18c.18,0,4.49-.46,4.78-.3.29.17,5.01-1.04,5.18-1.04.18,0,3.44-.58,3.61-.58.18,0,2.68.17,2.68.17,0,0,1.93,1.52,1.93,1.69,0,.18-.47,1.69-.47,1.69l-1.69.41-3.14.64s-2.57.23-3.67.29c-1.11.06-2.45.12-3.44.24-.99.11-2.91.58-3.21.75-.29.18-2.62.82-2.97.93-.35.12-1.8,1.52-2.04,1.69-.23.18-3.2,3.44-3.2,3.73s2.1,1.92,2.39,2.22c.29.29,1.4,3.26,1.4,3.55s-.99,2.68-1.58,3.49c-.58.82-1.34,4.78-1.39,5.65-.06.88.87,3.03.93,3.27.06.23,4.95.75,4.95.75l4.08.94s3.38.81,4.02.81,3.2.12,3.61,0c.41-.11,2.68-1.34,2.68-1.34,0,0,2.85-2.68,3.2-3.38.35-.7.88-3.43.93-4.42.06-.99,1.46-5.01,1.46-5.01,0,0,2.21-2.92,2.74-3.5.52-.58,2.45-2.39,2.56-2.62.12-.23,2.16.06,2.16.06,0,0-.41,3.09-.76,3.43-.35.35-1.51,1.81-2.1,2.33-.58.53-1.1,1.99-1.34,2.39-.23.41-.46,2.97-.71,3.5-.24.52.19,5.18,0,5.71-.17.52,1.58,4.19,1.63,4.6.06.41,1.81,3.2,1.99,3.67.17.47,3.84,1.46,4.19,1.51.35.06,2.85-1.28,3.15-1.63.29-.35,3.72-1.98,3.72-1.98l3.27.06s2.73,1.05,2.91,1.17c.17.11,2.1,1.98,2.33,2.27.23.29,3.26.46,3.26.46l5.3-2.97s2.04-1.05,1.92-1.45c-.11-.41,1.11-1.58,1.11-2.51s.12-2.74.12-3.2-.29-2.51-.35-2.74c-.06-.23,1.86-1.46,2.15-1.92.29-.47.88-2.57.76-2.86s0-3.32,0-3.32c0,0-.7-2.79-.76-2.97-.06-.17-3.08-2.21-3.32-2.21s-3.9-2.62-4.13-2.74c-.24-.12-3.15-1.11-3.5-1.22-.35-.12-4.08-1.23-4.25-1.23-.18,0-2.16-1.74-2.16-1.74l3.5.35,5.12,1.39,5.19,2.04,2.85.99,5.48,1.46,3.03-.58h1.05l1.63-.53s.58-1.92.58-2.1c0-.17,1.63-1.86,1.63-1.86l2.04-.7s2.65-5.85,2.59-6.46c-.06-.62-.11-2.8-.11-2.8,0,0,.26-1.66,0-2.21ZM307.4,197.07s1.21-2.83,1.42-3.54c.21-.71,1.7-2.06,1.7-2.06l2.2-1.77s3.25.92,3.54,1.06c.28.15,2.69-.42,2.69-.42,0,0,1.21-.99,1.56-1.14.35-.14,2.2-.56,2.2-.56l.42.78s.57,2.9.57,3.4-.21,1.63-.21,1.63c0,0-.64,2.05-1.28,2.69-.64.64-.78.78-1.06,1.21-.09.13-.33.35-.66.61.05-.14.08-.23.08-.23,0,0,.18-.93.18-1.34s-.47-2.79-.47-2.79l-.35-.64s-1.51.35-1.8.46c-.29.12-1.29.94-1.29.94,0,0-1.98.46-2.21.35-.23-.12-2.91-.88-2.91-.88l-1.81,1.46s-1.22,1.1-1.4,1.69c-.17.58-1.16,2.91-1.16,2.91,0,0-.58,2.04-.52,2.21.03.09-.25.46-.46.9-.12-.68-.25-1.29-.39-1.61-.42-1,.85-2.41.78-2.63-.07-.21.64-2.69.64-2.69ZM280.05,212.16s-3.4-.92-4.33-1.27c-.92-.36-1.13-2.13-1.2-2.48-.07-.36.78-1.35.78-1.35l1.7-.64,2.2-1.27,1.91-.71,2.76.14,2.34-1.34v-1.21l1.92-1.27h2.48l2.26,2.26s.13.39.29.9h-1.66l-1.57,1.05v.99l-1.92,1.1-2.27-.11-1.57.58-1.81,1.05-1.4.52s-.7.82-.64,1.11.23,1.75.99,2.04c.05.02.1.04.16.06-.76-.09-1.42-.15-1.42-.15ZM289.4,238.6s-2.55,2.19-3.83,2.26c-1.27.07-.99-.63-1.98-1.98-.99-1.35-.35-2.2-.57-2.83-.21-.64,1.14-1.99,1.56-3.05.43-1.06.5-1.42.14-1.63-.35-.21-.56-.64-2.19-1.7-1.63-1.07.07-1.7-.22-2.84-.28-1.13,1.35-1.98,1.35-2.19s2.13-.78,2.41-1c.28-.21,2.76-.7,3.12-.85.1-.04.44-.1.89-.17-.13.04-.22.08-.26.11-.24.18-1.98.64-1.98.82,0,.17-1.34.87-1.11,1.81.23.93-1.17,1.45.17,2.33,1.34.87,1.52,1.22,1.81,1.39.29.18.23.47-.12,1.34-.35.88-1.45,1.98-1.28,2.51.18.52-.35,1.22.47,2.33.81,1.11.58,1.69,1.63,1.63.56-.03,1.4-.55,2.07-1.03-.64.84-2.08,2.74-2.08,2.74ZM323.2,232.08c.36.14,1.7,1.41,1.7,1.41,0,0,.15,1.92,0,2.13-.14.21-1.06.71-1.41.85-.36.14-1.46,3.19-1.46,3.19l-.03,1.42s.07,2.48,0,2.69-.21,1.63-.36,1.91c-.14.29-1.34,1.7-1.84,2.41-.49.71-2.34.07-2.9,0-.57-.07-1.92-1.34-2.98-3.04-1.06-1.71,0-1.85,0-2.13s-2.91-2.13-3.12-2.2-1.2.29-1.56.36c-.35.07-.85,1.2-1.2,1.41-.36.22-2.69.43-3.19.43s-1.42-1.06-1.63-1.42c-.21-.35-.64-1.56-.64-1.56l.64-2.48s.14-.41.31-.95c.11.31.28.73.38.9.18.3.93,1.17,1.34,1.17s2.33-.18,2.62-.35c.3-.18.7-1.11.99-1.17.3-.05,1.11-.35,1.29-.29.17.06,2.56,1.58,2.56,1.81s-.87.35,0,1.75c.87,1.39,1.98,2.44,2.45,2.5.46.06,1.98.58,2.38,0,.41-.58,1.4-1.75,1.52-1.98.11-.23.23-1.4.29-1.57.06-.18,0-2.22,0-2.22l.03-1.16s.9-2.51,1.19-2.62c.29-.12,1.05-.53,1.17-.7.06-.09.05-.57.04-1,.73.26,1.31.45,1.42.5ZM338.37,222.58c-.43.14-1.35.07-2.91.07s-1.98-.07-1.98-.07h-2.62c-.92,0-3.19-.21-3.19-.21,0,0-1.88-.36-3.56-.67.39.03,1.86.16,2.52.16h2.16s.35.06,1.63.06,2.04.06,2.39-.06c.35-.12,1.1-.35,1.1-.82s-.35-2.67-.46-2.85c-.12-.17-2.45-1.75-2.68-1.75s-1.58-.06-1.58-.06l-1.04-1.39-.24-2.97s-.7-1.69-.87-1.69c-.18,0-2.45,0-2.86.11-.06.02-.18.04-.33.06.02-.03.04-.07.06-.11.71-1.41,3.47-1.56,3.97-1.7s3.26-.14,3.47-.14,1.07,2.06,1.07,2.06l.28,3.61,1.27,1.7s1.63.07,1.92.07,3.12,1.91,3.26,2.13c.14.21.56,2.9.56,3.47s-.92.85-1.34.99Z"/>
  <path class="cls-1" d="M158.59,34.34l-.3-2.06s-.05-1.09-.22-1.09c-.18,0-1.05-.26-1.75-.48-.7-.22-1.05-.44-1.48-.74-.44-.31-1.01-1.14-1.14-1.53-.13-.39-.31-1.27-.35-1.36-.04-.1-.96-1.83-1.22-2.27-.27-.43-1.97.05-2.63.13-.65.09-1.74.57-1.74.57,0,0-2.19,1.31-2.36,1.57-.18.25-1.84.97-2.01.97-.18,0-.09-.4-.09-.53s1.05-1.7,1.09-1.83c.05-.13,1.01-.96,1.14-1.14.13-.17,2.23-2.14,2.23-2.14l1.44-2.01,1.22-1.18,1.14-.57.92.09.91.7,1.23.44.39.08,1.31-.57.61-1.04v-1.27l-.83-.7-1.92-.79-.83-1.22v-2.18s-.31-.96-.48-1.23c-.18-.26-1.05-1.13-1.05-1.13h-1.35l-1.01.26h-.26l-1.09.7-.7,1.05.22,1.83.48,1.4v1.7s-.48,1.23-.61,1.4c-.14.18-1.32,1.62-1.49,1.71-.17.08-1.14,1.35-1.4,1.52-.26.18-1.27,1.75-1.27,1.75l-.87,1.09s-.79,1.84-.92,1.93c-.13.08-.3-.53-.33-.75-.02-.21-.02-1.96-.02-1.96,0,0,.05-2.4,0-2.58-.04-.17-.35-1.53-.35-1.53v-1.75c0-.13-.74-1.79-.74-1.79l-.61-1.4-.96-1.26s-1.01-1.05-1.14-1.05-1.05-.57-1.18-.74c-.13-.18-1.44,0-1.44,0l-.78.39-1.59.89-.47.93-.81.23-.59.12-.93-.7-.81-1.86h-5.36v1.16l-.39.92-.2.48v1.4h-1.51l-2.1.46h-.81l-1.05.7.46,2.1v3.49h-5.47l-2.33,2.1-3.03,4.31s.35,6.76.47,7.11c.11.35,0,2.91,0,2.91l1.86,1.17,1.86,1.16v2.45l1.87,1.05,2.15-1.13c-.66.47-1.37.97-1.37.97l-1.18.26-.04.87.04,1.27s.27,2.1.27,2.8-.05,1.96-.13,2.36c-.09.39-.35,2-.44,2.53-.09.52.04.57.04.57,0,0,1.4.04,1.53.08.13.05,1.23.4,1.4.44.17.04,2.05.7,2.66.7s1.18.22,1.18.22c0,0,.66.13.83.17.18.05,1.27.96,1.4,1.14.13.17.83,1.53.83,1.53l.92,1.09s1.18.83,1.44.7,1.18,0,1.18,0l1.05-.87,1.4-.22s1.09-.09,1.22-.13c.13-.05,1.31-.48,1.31-.48l.83-.62,1.44-10.26-.19,1.61s.11,2.76,0,2.93c-.11.18-.2,2.49-.42,3.06-.22.57-.04,1.44-.04,1.7s.26,1.31.26,1.31l1.01.53s1.31.52,1.44.57c.13.04,1.48-.27,1.48-.27h.22s.7,0,2.54-1c1.83-1.01.87-.18,1-.18s1.31.18,1.31.18c0,0,1.75.39,1.92.35.18-.05.92.09,1.58,0,.65-.09,1.39-.53,1.39-.53,0,0,.83-.83.97-1.09.13-.26.74-1.31.74-1.31,0,0,.85-.61,1.21-.96.07-.07.12-.13.14-.17.13-.27.96-.53,1.01-.88.04-.35.48-.52.87-1.4.39-.87.57-1.39.79-2.01.22-.61,0-1.31-.05-1.7-.04-.39.05-.92-.04-1.53s-.7-1-.96-1.48c-.26-.49-1.09-.7-1.88-1.61-.79-.91-1.05-.45-1.05-.45l-2.31-2.53s2.62.61,3.01.7c.39.08,2.49.83,2.75.91.27.09,1.44,1.01,1.97,1.26.52.24,2.05,0,2.05,0l.35-.29s-.3-1.1-.35-1.23c-.04-.13-.22-1.61-.22-1.88s.22-1.7.22-1.7l.96-1.22.79-.48s.92-1.66,1.09-2.06c.18-.39,0-1.13,0-1.13ZM146.32,35.95c-.05.18-.75.4-1.1.4s-.87,0-1.57-.13c-.7-.14-.61-.09-2.1-.35-1.48-.27-.56,0-2.14,0h-1.7l-.2.46-.15.37s.51.51.92.85c.13.1.25.19.35.24.39.22,1.83-.05,2.14,0,.3.04,1.22.61,1.22.61v.57s-.17.35-.39.43c-.22.09-.83.14-1.53,0-.34-.06-.6-.17-.78-.25-.18-.1-.27-.18-.27-.18h-1.31s2.1,1.22,2.4,1.61c.07.1.16.19.26.27h.01s1.56,2.48,1.56,2.48c-.09.29-.24.79-.3.88-.09.13-.65.35-1.31.31-.66-.05-.17-.88-.22-1.4-.04-.53-.7-.57-1.22-1.07-.53-.5-.53-.33-.88-.85-.34-.53-.61-1.23-.91-1.71-.31-.48-.7,0-.7,0l-.22.22.46.87s.85.7.89.88c.05.17.79,1.05.79,1.05l.48.61.66,1.05s.43,1.26.39,1.39c-.04.14,0,1.03,0,1.03l-.48,1.2-1.36.18s-1.04-.96-1.26-1.38c-.22-.42-.35-1.11-.48-1.46-.13-.35-.7-2.54-.79-3.08-.09-.55-.26-1.2-.31-1.47-.04-.26-.96-.61-.96-.61h-.35l-.43.26-1.41-.19.05.19s-.48,1.18-.52,1.4c-.05.22-.63,2.49-.63,2.49l-.55,1.01h-.35l-.26-1.27.13-1.57.92-1.71.37-.65-.26-.04-.77.04-1.09.65s-1.09,1.75-1.18,1.97c-.09.22-.83,2.45-.83,2.67s-.83.96-.92,1.09c-.09.13-1.13.22-1.4.26-.26.04-1.74,0-1.74,0l.21-.26.79-1.58s.57-.96.83-1.17c.26-.22,2.1-1.75,2.27-1.84.18-.09,1.97-1.14,1.97-1.14l-.44-1.61s-1.44.09-1.62-.18c-.17-.26-.61-1.22-.98-1.44-.37-.22-.41.31-.98.44s-1.92.22-2.4,0c-.48-.22-.53-.44-.7-.57-.18-.13-.66-1.22-.96-1.51-.31-.28,1.57.37,2.92.42,1.36.04,1.58,0,1.58,0,0,0,.56-1.4.54-1.49-.02-.08-.94.05-1.68-.48-.74-.52-2.05-.09-2.8-1.18-.74-1.09-1-.09-1.39-.43-.4-.35.13-.7.3-.7.18,0,2.27.3,2.54.3s1.79.35,2.57.4c.79.04,0,.65,0,.65v1.09s2.01-.08,2.97-.26c.97-.17.79.22.83.35.05.13.7-.17.4-.7-.31-.52-1.05-.92-1.44-1.44-.4-.52,0-.26,0-.79s.65-.17.74-.35c.09-.17.35.4.35.4l.74.91s.7-.08.77-.61c.02-.16.06-.21.12-.21.03,0,.05.01.08.03.03.01.06.03.09.06,0,0-.02-.02-.02-.04-.05-.08-.11-.17-.18-.28-.31-.5-.77-1.28-1.04-2.02-.04-.12-.08-.24-.12-.36-.04-.16-.07-.31-.09-.45-.18-1.36-.22-.35-.48-1.1-.27-.74.48-.35.48-.35l1.4.53,1.13,1.7v1.75s.96-.26,1.01-.7c.01-.16.12-.25.25-.31.24-.1.55-.1.49-.21-.09-.18.13-.44.09-1.05-.05-.61.52-.96.39-1.49-.13-.52-.13-.26-.26-1.92-.13-1.66.48-1.18.48-1.18l.96-.74s.92.74.92.87.39,1.14.56,4.46c.18,3.32,0,.83-.04,1.05-.04.22,0,1.26-.09,1.82-.08.56-.78.8-1.09.97-.21.13-.34.34-.47.5-.04.07-.09.12-.14.16-.18.13-.74.57-1.57.96-.83.39-.83.48-.94.57-.11.08-.55,1.22-.55,1.22l.22,1.05.52.7h.62s.96-.31,1.22-.61c.26-.31.48-.18.87-.92.4-.74.53-.26.79-1.18.02-.08.04-.15.06-.21.18-.6.09-.11.25-1.06.17-1.05.39-.08.56-.08.18,0,1.53.17,1.71.17.17,0,.35-.13.83-.74.49-.61.39-.18.61-1.01.22-.83.17-.35.17-.35,0,0,1.31,1.14,1.36,1.27.04.13.22,1,.22,1,0,0,1.18.22,1.87.44.7.22.97,0,1.14,0,.18,0,.7.22,1.01.39.3.18.04.88,0,1.05ZM131.18,39.93l.84.11-.3-1.07-.54.96Z"/>
  <path class="cls-1" d="M129.06,40.58s-1.09,1.75-1.18,1.97c-.09.22-.83,2.45-.83,2.67s-.83.96-.92,1.09c-.09.13-1.13.22-1.4.26-.26.04-1.74,0-1.74,0l.21-.26.79-1.58s.57-.96.83-1.17c.26-.22,2.1-1.75,2.27-1.84.18-.09,1.97-1.14,1.97-1.14Z"/>
  <path class="cls-1" d="M132.07,40.23s-.48,1.18-.52,1.4c-.05.22-.63,2.49-.63,2.49l-.55,1.01h-.35l-.26-1.27.13-1.57.92-1.71.37-.65.84.11.05.19Z"/>
  <polygon class="cls-1" points="132.02 40.04 131.18 39.93 131.72 38.97 132.02 40.04"/>
  <path class="cls-1" d="M141.94,43.33c-.09.29-.24.79-.3.88-.09.13-.65.35-1.31.31-.66-.05-.17-.88-.22-1.4-.04-.53-.7-.57-1.22-1.07-.53-.5-.53-.33-.88-.85-.34-.53-.61-1.23-.91-1.71-.31-.48-.7,0-.7,0l-.22.22.46.87s.85.7.89.88c.05.17.79,1.05.79,1.05l.48.61.66,1.05s.43,1.26.39,1.39c-.04.14,0,1.03,0,1.03l-.48,1.2-1.36.18s-1.04-.96-1.26-1.38c-.22-.42-.35-1.11-.48-1.46-.13-.35-.7-2.54-.79-3.08-.09-.55-.26-1.2-.31-1.47-.04-.26-.96-.61-.96-.61h-.35l-.43.26-1.41-.19-.3-1.07-.54.96-.26-.04-.77.04-1.09.65-.44-1.61s-1.44.09-1.62-.18c-.17-.26-.61-1.22-.98-1.44-.37-.22-.41.31-.98.44s-1.92.22-2.4,0c-.48-.22-.53-.44-.7-.57-.18-.13-.66-1.22-.96-1.51-.31-.28,1.57.37,2.92.42,1.36.04,1.58,0,1.58,0,0,0,.56-1.4.54-1.49-.02-.08-.94.05-1.68-.48-.74-.52-2.05-.09-2.8-1.18-.74-1.09-1-.09-1.39-.43-.4-.35.13-.7.3-.7.18,0,2.27.3,2.54.3s1.79.35,2.57.4c.79.04,0,.65,0,.65v1.09s2.01-.08,2.97-.26c.97-.17.79.22.83.35.05.13.7-.17.4-.7-.31-.52-1.05-.92-1.44-1.44-.4-.52,0-.26,0-.79s.65-.17.74-.35c.09-.17.35.4.35.4l.74.91s.7-.08.77-.61c.02-.16.06-.21.12-.21.03,0,.05.01.08.03.03.01.06.03.09.06,0,0-.02-.02-.02-.04-.05-.08-.11-.17-.18-.28-.31-.5-.77-1.28-1.04-2.02-.04-.12-.08-.24-.12-.36-.04-.16-.07-.31-.09-.45-.18-1.36-.22-.35-.48-1.1-.27-.74.48-.35.48-.35l1.4.53,1.13,1.7v1.75s.96-.26,1.01-.7c.01-.16.12-.25.25-.31l1.94,3.08c-.04.07-.09.12-.14.16-.18.13-.74.57-1.57.96-.83.39-.83.48-.94.57-.11.08-.55,1.22-.55,1.22l.22,1.05.52.7h.62s.96-.31,1.22-.61c.26-.31.48-.18.87-.92.4-.74.53-.26.79-1.18.02-.08.04-.15.06-.21l.92,1.46-.15.37s.51.51.92.85l1.01,1.6c-.18-.1-.27-.18-.27-.18h-1.31s2.1,1.22,2.4,1.61c.07.1.16.19.26.27h.01s1.56,2.48,1.56,2.48Z"/>
  <polygon class="cls-1" points="132.02 40.04 131.18 39.93 131.72 38.97 132.02 40.04"/>
  <path class="cls-1" d="M137.14,29.84c-.04.22,0,1.26-.09,1.82-.08.56-.78.8-1.09.97-.21.13-.34.34-.47.5l-1.94-3.08c.24-.1.55-.1.49-.21-.09-.18.13-.44.09-1.05-.05-.61.52-.96.39-1.49-.13-.52-.13-.26-.26-1.92-.13-1.66.48-1.18.48-1.18l.96-.74s.92.74.92.87.39,1.14.56,4.46c.18,3.32,0,.83-.04,1.05Z"/>
  <path class="cls-1" d="M141.82,42.05c.08.19.17,1.07.17,1.07,0,0-.02.08-.05.21l-1.56-2.47c.3.26.66.45.82.55.22.14.53.44.62.64Z"/>
  <path class="cls-1" d="M141.99,38.4v.57s-.17.35-.39.43c-.22.09-.83.14-1.53,0-.34-.06-.6-.17-.78-.25l-1.01-1.6c.13.1.25.19.35.24.39.22,1.83-.05,2.14,0,.3.04,1.22.61,1.22.61Z"/>
  <path class="cls-1" d="M146.32,35.95c-.05.18-.75.4-1.1.4s-.87,0-1.57-.13c-.7-.14-.61-.09-2.1-.35-1.48-.27-.56,0-2.14,0h-1.7l-.2.46-.92-1.46c.18-.6.09-.11.25-1.06.17-1.05.39-.08.56-.08.18,0,1.53.17,1.71.17.17,0,.35-.13.83-.74.49-.61.39-.18.61-1.01.22-.83.17-.35.17-.35,0,0,1.31,1.14,1.36,1.27.04.13.22,1,.22,1,0,0,1.18.22,1.87.44.7.22.97,0,1.14,0,.18,0,.7.22,1.01.39.3.18.04.88,0,1.05Z"/>
  <path class="cls-3" d="M324.9,235.62c-.14.21-1.06.71-1.41.85-.36.14-1.46,3.19-1.46,3.19l-.03,1.42s.07,2.48,0,2.69-.21,1.63-.36,1.91c-.14.29-1.34,1.7-1.84,2.41-.49.71-2.34.07-2.9,0-.57-.07-1.92-1.34-2.98-3.04-1.06-1.71,0-1.85,0-2.13s-2.91-2.13-3.12-2.2-1.2.29-1.56.36c-.35.07-.85,1.2-1.2,1.41-.36.22-2.69.43-3.19.43s-1.42-1.06-1.63-1.42c-.21-.35-.64-1.56-.64-1.56l.64-2.48s.14-.41.31-.95c.11.31.28.73.38.9.18.3.93,1.17,1.34,1.17s2.33-.18,2.62-.35c.3-.18.7-1.11.99-1.17.3-.05,1.11-.35,1.29-.29.17.06,2.56,1.58,2.56,1.81s-.87.35,0,1.75c.87,1.39,1.98,2.44,2.45,2.5.46.06,1.98.58,2.38,0,.41-.58,1.4-1.75,1.52-1.98.11-.23.23-1.4.29-1.57.06-.18,0-2.22,0-2.22l.03-1.16s.9-2.51,1.19-2.62c.29-.12,1.05-.53,1.17-.7.06-.09.05-.57.04-1,.73.26,1.31.45,1.42.5.36.14,1.7,1.41,1.7,1.41,0,0,.15,1.92,0,2.13Z"/>
  <path class="cls-2" d="M339.71,221.59c0,.57-.92.85-1.34.99-.43.14-1.35.07-2.91.07s-1.98-.07-1.98-.07h-2.62c-.92,0-3.19-.21-3.19-.21,0,0-1.88-.36-3.56-.67.39.03,1.86.16,2.52.16h2.16s.35.06,1.63.06,2.04.06,2.39-.06c.35-.12,1.1-.35,1.1-.82s-.35-2.67-.46-2.85c-.12-.17-2.45-1.75-2.68-1.75s-1.58-.06-1.58-.06l-1.04-1.39-.24-2.97s-.7-1.69-.87-1.69c-.18,0-2.45,0-2.86.11-.06.02-.18.04-.33.06.02-.03.04-.07.06-.11.71-1.41,3.47-1.56,3.97-1.7s3.26-.14,3.47-.14,1.07,2.06,1.07,2.06l.28,3.61,1.27,1.7s1.63.07,1.92.07,3.12,1.91,3.26,2.13c.14.21.56,2.9.56,3.47Z"/>
  <path class="cls-3" d="M323.7,192.82c0,.49-.21,1.63-.21,1.63,0,0-.64,2.05-1.28,2.69-.64.64-.78.78-1.06,1.21-.09.13-.33.35-.66.61.05-.14.08-.23.08-.23,0,0,.18-.93.18-1.34s-.47-2.79-.47-2.79l-.35-.64s-1.51.35-1.8.46c-.29.12-1.29.94-1.29.94,0,0-1.98.46-2.21.35-.23-.12-2.91-.88-2.91-.88l-1.81,1.46s-1.22,1.1-1.4,1.69c-.17.58-1.16,2.91-1.16,2.91,0,0-.58,2.04-.52,2.21.03.09-.25.46-.46.9-.12-.68-.25-1.29-.39-1.61-.42-1,.85-2.41.78-2.63-.07-.21.64-2.69.64-2.69,0,0,1.21-2.83,1.42-3.54.21-.71,1.7-2.06,1.7-2.06l2.2-1.77s3.25.92,3.54,1.06c.28.15,2.69-.42,2.69-.42,0,0,1.21-.99,1.56-1.14.35-.14,2.2-.56,2.2-.56l.42.78s.57,2.9.57,3.4Z"/>
  <path class="cls-3" d="M293.16,203.92h-1.66l-1.57,1.05v.99l-1.92,1.1-2.27-.11-1.57.58-1.81,1.05-1.4.52s-.7.82-.64,1.11.23,1.75.99,2.04c.05.02.1.04.16.06-.76-.09-1.42-.15-1.42-.15,0,0-3.4-.92-4.33-1.27-.92-.36-1.13-2.13-1.2-2.48-.07-.36.78-1.35.78-1.35l1.7-.64,2.2-1.27,1.91-.71,2.76.14,2.34-1.34v-1.21l1.92-1.27h2.48l2.26,2.26s.13.39.29.9Z"/>
  <path class="cls-3" d="M291.48,235.86c-.64.84-2.08,2.74-2.08,2.74,0,0-2.55,2.19-3.83,2.26-1.27.07-.99-.63-1.98-1.98-.99-1.35-.35-2.2-.57-2.83-.21-.64,1.14-1.99,1.56-3.05.43-1.06.5-1.42.14-1.63-.35-.21-.56-.64-2.19-1.7-1.63-1.07.07-1.7-.22-2.84-.28-1.13,1.35-1.98,1.35-2.19s2.13-.78,2.41-1c.28-.21,2.76-.7,3.12-.85.1-.04.44-.1.89-.17-.13.04-.22.08-.26.11-.24.18-1.98.64-1.98.82,0,.17-1.34.87-1.11,1.81.23.93-1.17,1.45.17,2.33,1.34.87,1.52,1.22,1.81,1.39.29.18.23.47-.12,1.34-.35.88-1.45,1.98-1.28,2.51.18.52-.35,1.22.47,2.33.81,1.11.58,1.69,1.63,1.63.56-.03,1.4-.55,2.07-1.03Z"/>
  <path class="cls-1" d="M333.91,221.04c0,.47-.75.7-1.1.82-.35.12-1.11.06-2.39.06s-1.63-.06-1.63-.06h-2.16c-.66,0-2.13-.13-2.52-.16-.01-.01-.02,0-.02,0-.03-.01-.05-.01-.08-.01-.05-.02-.1-.03-.15-.03-.04-.01-.08-.02-.11-.02-.11-.03-.21-.05-.31-.06-.13-.03-.26-.05-.38-.07-.07-.02-.13-.03-.19-.04-.11-.02-.22-.04-.32-.06-.2-.04-.39-.07-.54-.1-.29-.05-.47-.08-.51-.08-.21,0-1.41.15-2.05.15s-1.99.63-2.34.78c-.36.14-1.42.42-1.42.42l-1.63,2.01-.64,2.03.47.63,1.38,1.85,2.76,1.21s2.21.75,3.75,1.27c.01.43.02.91-.04,1-.12.17-.88.58-1.17.7-.29.11-1.19,2.62-1.19,2.62l-.03,1.16s.06,2.04,0,2.22c-.06.17-.18,1.34-.29,1.57-.12.23-1.11,1.4-1.52,1.98-.4.58-1.92.06-2.38,0-.47-.06-1.58-1.11-2.45-2.5-.87-1.4,0-1.52,0-1.75s-2.39-1.75-2.56-1.81c-.18-.06-.99.24-1.29.29-.29.06-.69.99-.99,1.17-.29.17-2.21.35-2.62.35s-1.16-.87-1.34-1.17c-.1-.17-.27-.59-.38-.9.31-.98.75-2.38.75-2.52,0-.21,1.63-1.49,1.63-1.49,0,0-.37-.92-.71-1.72-.22-.56-.43-1.07-.49-1.18-.14-.29-.78-1.77-1.07-1.77s-3.47.07-4.11.14c-.49.05-1.67.45-2.51.72-.24.08-.44.15-.6.2-.71.21-1.35,1.77-1.63,2.05-.29.29-.92,2.13-1.35,2.55-.42.43-1.28,1.49-1.77,2.13-.05.06-.11.14-.19.24-.67.48-1.51,1-2.07,1.03-1.05.06-.82-.52-1.63-1.63-.82-1.11-.29-1.81-.47-2.33-.17-.53.93-1.63,1.28-2.51.35-.87.41-1.16.12-1.34-.29-.17-.47-.52-1.81-1.39-1.34-.88.06-1.4-.17-2.33-.23-.94,1.11-1.64,1.11-1.81,0-.18,1.74-.64,1.98-.82.04-.03.13-.07.26-.11.01,0,.02,0,.03,0,1.09-.17,2.78-.36,2.98-.31.08.02.34-.19.66-.5.75-.71,1.84-1.97,1.89-2.12.07-.22,0-1.21,0-1.21,0,0-2.55-2.27-2.77-2.48-.21-.21-4.04-.92-4.39-1.13-.24-.15-2.12-.96-3.43-1.54h-.01c-.6-.28-1.08-.5-1.24-.59-.27-.15-1.38-.31-2.32-.42h-.01c-.06-.02-.11-.04-.16-.06-.76-.29-.93-1.75-.99-2.04s.64-1.11.64-1.11l1.4-.52,1.81-1.05,1.57-.58,2.27.11,1.92-1.1v-.99l1.57-1.05h1.66c.28.86.66,2.04.71,2.22.07.28,1.13,1.35,1.13,1.35l1.17.67h0s1.66.96,1.66.96l.76,1.15,1.02,1.54,2.12,6.24,1.42,4.25,2.41.35,1.98-.49s-.28-3.76-.43-3.97c0,0-.01-.01,0-.02-.06-.23.59-1.91.93-3,.14-.43.23-.76.21-.88-.07-.42-.07-1.7-.21-2.2-.14-.49-.85-3.54-.93-4.46-.07-.92-.35-.64-.35-.64,0,0-.16-1.63-.39-2.99.21-.44.49-.81.46-.9-.06-.17.52-2.21.52-2.21,0,0,.99-2.33,1.16-2.91.18-.59,1.4-1.69,1.4-1.69l1.81-1.46s2.68.76,2.91.88c.23.11,2.21-.35,2.21-.35,0,0,1-.82,1.29-.94.29-.11,1.8-.46,1.8-.46l.35.64s.47,2.39.47,2.79-.18,1.34-.18,1.34c0,0-.03.09-.08.23-.74.6-1.87,1.4-2.46,1.8-.85.56-2.48,2.33-2.98,2.76-.35.3-1.07,1.87-1.58,2.87t-.01.02c-.15.3-.29.55-.39.69-.02.05-.05.08-.07.1-.18.18-.7,1.21-1.21,2.25,0,.01-.01.01-.01.02-.5,1.05-.98,2.09-1.05,2.27-.14.35.21,4.39.21,4.96s1.85.21,2.06.21c.14,0,1.44-.06,2.48-.12.53-.03.99-.06,1.2-.09.64-.07,1.14-.85,1.56-1.28.43-.42,1.99-1.06,2.41-1.7.42-.61,2.44-1.84,3.2-3.22.15-.02.27-.04.33-.06.41-.11,2.68-.11,2.86-.11.17,0,.87,1.69.87,1.69l.24,2.97,1.04,1.39s1.34.06,1.58.06,2.56,1.58,2.68,1.75c.11.18.46,2.39.46,2.85Z"/>
</svg>