<?xml version="1.0" encoding="UTF-8"?>
<svg id="Layer_1" data-name="Layer 1" xmlns="http://www.w3.org/2000/svg" viewBox="0 0 174.76 169.21">
  <defs>
    <style>
      .cls-1 {
        fill: #232222;
      }

      .cls-2 {
        fill: #ffe5b7;
      }

      .cls-3 {
        fill: #fcb714;
      }

      .cls-4 {
        fill: #383636;
      }

      .cls-5 {
        fill: #555353;
      }

      .cls-6 {
        fill: #0e0d0d;
      }

      .cls-7 {
        fill: #100f0f;
      }
    </style>
  </defs>
  <path d="M40.45,154.32c-.04.72-.33,1.57-1.02,1.58l-8.9.07c-.96,0-1.54.76-1.54,1.65,0,1.03.71,1.85,1.79,1.85h9.48c.47-.01,1-.39,1-.87l.02-7.55c0-.38-.25-.62-.65-.62l-12.39-.05c-.84,0-1.19-.98-1.18-1.71,0-.59.3-1.61,1.07-1.61h15.19c1.18,0,2.07,1.25,2.07,2.38v11.67c.02.9-.73,1.81-1.64,1.81l-14.9.02c-1.57-.25-2.96-.94-3.72-2.33-.97-1.78-.89-3.88.02-5.69.64-1.27,1.86-2.32,3.37-2.31l11.04.03c.68,0,.91,1.12.87,1.7Z"/>
  <path d="M101.16,154.65c-.12.6-.44,1.27-1.07,1.27l-8.76.05c-.98,0-1.6.73-1.59,1.65.01,1.01.66,1.85,1.72,1.85h9.5c.6,0,1.07-.45,1.07-1.03l-.02-7.62c0-.27-.44-.39-.66-.39l-12.4-.05c-.82,0-1.13-1.02-1.13-1.7s.34-1.63,1.14-1.63l15.19.02c1.2,0,2.02,1.32,2.02,2.44v11.61c0,.94-.78,1.8-1.72,1.8h-14.9c-1.57-.28-2.94-.98-3.69-2.37-.9-1.7-.85-3.63-.06-5.4.6-1.35,1.84-2.55,3.42-2.55l11.15.05c.77,0,.9,1.43.79,2Z"/>
  <path d="M11.96,158.48c.34.48.89.96,1.5.97l8.75.08c.84,0,1.05,1.02,1.02,1.75-.02.47-.07,1.6-.75,1.6l-10.13.06c-5.17-1.31-6.03-7.77-4.68-12.04.67-2.12,2.33-3.54,4.55-3.87l10.24.07c.98,0,1.08,3.24-.11,3.26l-9.03.08c-.83,0-1.49.5-1.87,1.17-.49.84-.54,1.71-.58,2.67-.06,1.49.17,2.92,1.08,4.21Z"/>
  <path d="M146.07,163.12c-1.21-.09-1.77-.93-1.77-2.01v-10.46c-.72-.11-1.4.11-2.06-.07-.74-.2-.87-1.08-.85-1.76s.17-1.57.88-1.6l2.03-.1c.04-.6.01-1.2,0-1.79,0-.92.65-1.48,1.51-1.59.61-.08,1.18.03,1.62.36,1.02.75.58,1.87.73,3.06l4.81.04c.86,0,1.41.78,1.39,1.64.03.72-.34,1.74-1.16,1.75l-5.06.07v10.6c0,1.14-.91,1.95-2.07,1.87Z"/>
  <path d="M131.38,163.11c-1.01-.12-1.64-.78-1.64-1.71v-10.74c-.69-.11-1.37.09-2.05-.07-.72-.16-.91-.96-.92-1.63s.12-1.51.85-1.72c.64-.19,1.31.02,2.05-.11.02-.56-.05-1.2-.09-1.8-.06-.93.57-1.46,1.43-1.59,1.03-.16,2.25.32,2.28,1.44l.05,1.96,4.63.07c.78.01,1.08.88,1.08,1.61,0,.57-.09,1.61-.8,1.72-1.55.23-3.1-.01-4.72.1l-.02,10.73c0,1.12-1,1.86-2.13,1.73Z"/>
  <path d="M77.74,162.94c-1.48,0,1.83-4.23,1.56-8.56-.08-1.29-.64-2.66-1.86-3.28-3.11-1.58-5.86.09-6.32-.21-.14-.09-.15-2.71.17-2.79.79-.9,4.46-.97,5.63-.89,1.63.12,3.27.43,4.55,1.52,1.64,1.39,2.32,3.87,2.16,5.95-.21,2.65-.82,5.13-1.62,7.62-.12.39-.52.62-.9.62h-3.38Z"/>
  <path d="M70.51,161.48c0,1.09-1.28,1.47-2.12,1.46-.72,0-1.96-.35-1.96-1.27v-16.9c0-.94,1.22-1.25,1.98-1.25.66,0,2.08.19,2.08,1.11l.03,16.84Z"/>
  <path d="M112.93,161.59c0,1.04-1.25,1.4-2,1.34-.94-.08-1.86-.56-1.87-1.53l-.06-3.56-.07-5.12c-.02-1.47-.2-3,.07-4.43.19-1.02,1.64-1.2,2.48-1.06.6.1,1.46.47,1.46,1.18v13.17Z"/>
  <path d="M50.13,162.93c-.88-.08-1.83-.6-1.83-1.54l-.03-12.56c-.19-.41-.06-.75.24-1.03.62-.58,1.43-.71,2.3-.55.59.11,1.39.54,1.39,1.29l.03,13.12c-.31.91-1.06,1.36-2.1,1.27Z"/>
  <path d="M59.7,154.3c.24-.91.43-1.67.27-2.53-.51-2.74-4.63-2.48-6.45-1.71-.25-.74-.5-1.33-.66-2.18,3.42-1.47,10.49-1.6,10.99,3.51.14,1.39-.16,2.8-.76,4.05l-3.4-1.14Z"/>
  <path d="M120.65,154.31c.14-.8.38-1.4.32-2.14-.23-3.14-4.55-2.93-6.53-2.1-.24-.75-.49-1.32-.64-2.18,2.39-.98,5.19-1.19,7.67-.43,1.92.58,3.18,2.12,3.33,4.08.1,1.34-.2,2.69-.76,3.91l-3.4-1.14Z"/>
  <path class="cls-7" d="M153.07,140.45c.12-.02.13.02.03.1l-.13.16.18.31c-1.02,4.33,5.47,4.01,4.13-.14l.16-.32c-.12-.29-.13-.41.11-.17.76.85.87,1.72.29,2.79-.82,1.5-2.43,2.17-4.04,1.33-1.39-.72-1.97-2.48-1.11-3.81l.16-.14s.02-.09.01-.13c.08-.17.17-.18.21,0Z"/>
  <path class="cls-4" d="M157.55,140.41c-.14-.09-.1.1-.11.17h-.33c-.93-1.16-2.19-1.06-3.43-.54-.03.24-.13.28-.27.07l-.16-.1c.55-.72,1.46-.87,2.39-.84.86.03,1.36.63,1.9,1.24Z"/>
  <path class="cls-5" d="M153.41,140.11c.28.28-.01.72-.34.34-.06.01-.15-.04-.21,0,0-.25.29-.29.4-.43l.16.1Z"/>
  <path class="cls-5" d="M152.68,140.71c.04-.06.11-.1.16-.14-.03.07-.1.11-.16.14Z"/>
  <path class="cls-5" d="M152.97,140.71c.03-.07,0-.24.13-.16-.01.06-.03.22-.13.16Z"/>
  <path class="cls-1" d="M153.41,140.11s-.08-.04-.16-.1c.06.01.22-.04.16.1Z"/>
  <path class="cls-6" d="M153.68,140.03c.77.03,1.48-.04,2.22.03.5.05.69.6.69.99,0,.44-.3.69-.73.9.33.48.64.88.85,1.37-.95.65-.7-1.62-2.33-1.18l-.09,1.46c-.12,0-.56-.08-.56-.28l-.06-3.3ZM156.02,141.61c.15-.26.14-.43.07-.62-.15-.42-1.22-.41-1.7-.34.03.26-.03.82.28.95.42.17.89,0,1.34,0Z"/>
  <path class="cls-3" d="M138.98,35.05c.19,0,.24-.06.14-.16-2.27-2.51-7.32-3.16-10.62-3.03-4.49.18-9,2.3-12.26,5.28-4.36,3.98-6.25,9.43-6.39,15.24-.05,2.1.44,4.07,1.01,6.08,1.34,4.79,4.51,9.13,8.91,11.59,3.44,1.92,7.31,2.73,11.25,2.73,1.25,0,2.38.12,3.61-.08,3.6-.57,7-2.13,9.7-4.54.8-.77,1.55-1.4,2.17-2.31,1.62-1.76,2.49-3.89,3.65-6.06v72.36s-45.22-.02-45.22-.02c-2.57,0-4.93-.64-7.45-.88-11.62-2.18-22.64-6.72-31.26-14.92-5.25-4.99-9.26-11.31-11.68-18.12-.78-2.19-1.41-4.25-1.89-6.52-1.14-5.34-1.68-10.64-1.54-16.13.12-4.98,1.6-10.93,3.37-15.61,4.51-11.93,13.12-22.41,23.61-29.6,5.06-3.47,11.33-6.45,17.28-7.89,2.82-.68,5.53-1.21,8.42-1.32,2.62-.1,5.14-.07,7.75,0,3.15.09,6.15.53,9.26,1.07,2.4.41,4.62,1.01,6.92,1.73,4.22,1.33,7.39,2.81,10.91,5.48,3.2,2.43,6.05,5.22,8.03,8.73,2.69,4.77,3.14,9.68.74,14.65-1.34,2.77-3.61,4.85-6.6,5.71-5.25,1.52-11.36.01-14.19-5.12-2.38-4.31-2.29-8.07-.15-12.44,1.51-3.09,4.29-5.12,7.64-5.78,1.63-.32,3.2-.25,4.9-.12Z"/>
  <path class="cls-2" d="M138.98,35.05c.05-.05.1-.1.14-.16.12.05.28.14.28.21,0,.14-.32.08-.42-.05Z"/>
</svg>