<?xml version="1.0" encoding="UTF-8"?>
<svg id="Layer_1" data-name="Layer 1" xmlns="http://www.w3.org/2000/svg" viewBox="0 0 555.02 220.1">
  <defs>
    <style>
      .cls-1 {
        fill: #242a63;
      }

      .cls-2 {
        fill: #1d1b56;
      }

      .cls-3 {
        fill: #292c65;
      }

      .cls-4 {
        fill: #22225e;
      }

      .cls-5 {
        fill: #565d8e;
      }

      .cls-6 {
        fill: #262963;
      }

      .cls-7 {
        fill: #292b60;
      }

      .cls-8 {
        fill: #18164d;
      }

      .cls-9 {
        fill: #262b64;
      }

      .cls-10 {
        fill: #292d65;
      }

      .cls-11 {
        fill: #7c82a7;
      }

      .cls-12 {
        fill: #211f5c;
      }

      .cls-13 {
        fill: #292d66;
      }

      .cls-14 {
        fill: #201e5c;
      }

      .cls-15 {
        fill: #21205e;
      }

      .cls-16 {
        fill: #2c2f67;
      }

      .cls-17 {
        fill: #737aa0;
      }

      .cls-18 {
        fill: #fff;
      }

      .cls-19 {
        fill: #7a80a5;
      }

      .cls-20 {
        fill: #22215e;
      }

      .cls-21 {
        fill: #3c4176;
      }

      .cls-22 {
        fill: #30346b;
      }

      .cls-23 {
        fill: #252a63;
      }

      .cls-24 {
        fill: #7279a0;
      }

      .cls-25 {
        fill: #1f1d58;
      }

      .cls-26 {
        fill: #24235e;
      }

      .cls-27 {
        fill: #19174e;
      }

      .cls-28 {
        fill: #232661;
      }

      .cls-29 {
        fill: #1e1c58;
      }

      .cls-30 {
        fill: #29306b;
      }

      .cls-31 {
        fill: #2d2e62;
      }

      .cls-32 {
        fill: #262862;
      }

      .cls-33 {
        fill: #22205f;
      }

      .cls-34 {
        fill: #23235e;
      }

      .cls-35 {
        fill: #242963;
      }

      .cls-36 {
        fill: #282a63;
      }

      .cls-37 {
        fill: #6e759e;
      }

      .cls-38 {
        fill: #1f1d59;
      }

      .cls-39 {
        fill: #232862;
      }

      .cls-40 {
        fill: #242762;
      }

      .cls-41 {
        fill: #1e1c57;
      }

      .cls-42 {
        fill: #201e5b;
      }

      .cls-43 {
        fill: #2b2f69;
      }

      .cls-44 {
        fill: #333466;
      }

      .cls-45 {
        fill: #575f8e;
      }

      .cls-46 {
        fill: #43497c;
      }

      .cls-47 {
        fill: #242862;
      }

      .cls-48 {
        fill: #dfdfe8;
      }

      .cls-49 {
        fill: #4f598c;
      }

      .cls-50 {
        fill: #545884;
      }

      .cls-51 {
        fill: #272b64;
      }

      .cls-52 {
        fill: #6a729d;
      }

      .cls-53 {
        fill: #1f1c58;
      }

      .cls-54 {
        fill: #4e5381;
      }

      .cls-55 {
        fill: #8187aa;
      }

      .cls-56 {
        fill: #363a70;
      }

      .cls-57 {
        fill: #201d5a;
      }

      .cls-58 {
        fill: #2a3271;
      }

      .cls-59 {
        fill: #1f1d5a;
      }

      .cls-60 {
        fill: #35386e;
      }

      .cls-61 {
        fill: #211e5c;
      }

      .cls-62 {
        fill: #f5f4f7;
      }

      .cls-63 {
        fill: #22205e;
      }

      .cls-64 {
        fill: #fafafc;
      }

      .cls-65 {
        fill: #747aa1;
      }

      .cls-66 {
        fill: #282c64;
      }

      .cls-67 {
        fill: #7c83a7;
      }

      .cls-68 {
        fill: #282b64;
      }

      .cls-69 {
        fill: #1f1e59;
      }
    </style>
  </defs>
  <path class="cls-40" d="M155.81,138.97c4.2,3.71,6.95,9.04,11.76,11.85.58-.3.98.1,1.2,1.19-.07,1.13.33,4.89-1.39,3.82-5.11-3.92-7.57-9.77-12.45-12.54-.32,1.82-1.01,1.59-1.19-.28,0-1-.3-2.15-1.04-2.86-1.82-1.75,1.25-2.05,3.11-1.18Z"/>
  <path class="cls-3" d="M344.72,139.15c3.78,3.75,6.74,8.3,10.88,11.62,2.29-1.56,2.65,6.9,0,5.23-3.88-4.21-7.18-9.08-11.65-12.65-.62.7-1.02.58-1.18-.34-.51-.35-.84-1.03-.97-2.03l-.78-.92c-1.12-1.87,2.26-1.95,3.7-.9Z"/>
  <path class="cls-6" d="M233.81,148.93c-.76-1.59-.15-3.15,1.84-4.7l-.87-4.22c-1.37-.99-1.03-1.38,1-1.17,2.17.72,4.07.49,5.03,2.8,1.18,2.81-1.57,4.02-2.2,6.19-.89,3.06,3.28,6.71,6.08,8.76-6.64,2.12-7.78-5.88-10.87-7.66Z"/>
  <path class="cls-10" d="M380.76,155.87c1.73.39,1.74.72,0,1.14-4.98-.88-8.57-4.01-8.86-8.64-.27-4.11,2.38-8.94,6.91-9.06-2.64,3.84-3.59,6.23-3.03,10.07.36,2.46,2.14,5.19,4.98,6.49Z"/>
  <path class="cls-60" d="M232.68,140.11c1.89,2.36,2.73,6.7.15,8.9-.14,2.2-1.49,4.6,0,6.86-1.02.98-3.18.99-4.11-.09.66-5.21.68-10.54.12-15.77-1.58-2.17,4.51-2.34,3.83.1Z"/>
  <path class="cls-22" d="M319.65,140.1c-.96,4.79-.87,10.1.02,14.9.53,1.58-3.33,2.23-4.05.82.62-5.24.47-10.55.19-15.82-2.06-2.07,4.56-2.25,3.85.1Z"/>
  <path class="cls-32" d="M289.83,139.01c.93,9.61,9.47,13.56,3.48,17.44-2.94-5.51-4.08-11.49-7.59-16.32-1.22-2.09,2.4-2.18,4.1-1.12Z"/>
  <path class="cls-30" d="M130.75,140.01l-.06,13.06c0,1.04.38,1.93,1.09,1.94-.02,1.78-3.99,2.18-4.87.78.95-5.45,1.2-11.33-.18-16.7,1.5-.86,4.26-1.05,4.02.91Z"/>
  <path class="cls-28" d="M406.77,140.01l-.07,13.06c0,1.04.35,1.95,1.07,1.94-.02,1.78-4,2.17-4.86.78.95-5.44,1.21-11.33-.18-16.69,1.51-.85,4.27-1.06,4.04.91Z"/>
  <path class="cls-36" d="M260.62,138.99c1.7-.72,1.74-.33.14,1.19l.71,2.1c-2.85,3.45-1.63,8.25,1.06,11.45l-.76,2.1-1,.34c-4.86-1.38-6.69-4.83-6.28-9.68.27-3.17,2.4-6.77,6.13-7.51Z"/>
  <path class="cls-13" d="M267.92,156.04c-.86-.29-.85-.63,0-1.03-.84-1.59-.79-3.62.14-6.1-.8-3.09-.57-5.4.71-6.9-.93-1.79-.6-2.45,1-2,3.66,1.9,4.18,5.68,3.87,9.27s-2.7,5.27-5.72,6.76Z"/>
  <path class="cls-48" d="M234.77,140.01c1.3.17,2.34,1.07,2.57,1.98,1.3,4.99-2.12,4.28-3.54,6.94l-.98.08c.19-2.92-1.81-6.1-.15-8.9.21-1.48,1.49-1.38,2.09-.1Z"/>
  <path class="cls-16" d="M208.77,140.01c-1.43-1.41-.91-1.46,1-1.13,2.69.79,5.52,1.88,4.91,5.59-.4,2.44-3.22,4.72-5.91,4.19,1.75-2.03,2.41-3.37,2.39-5.13-.02-1.49-.69-3.08-2.39-3.52Z"/>
  <path class="cls-45" d="M355.6,156c1.44.09,1.19-1.56,1.3-2.51.12-1.06-.83-1.97-1.3-2.72.11-2.72.26-5.99.17-8.77-.52-2.09.62-2.46,2-1l.02,15.89c-1.6.65-1.65-.31-2.19-.9Z"/>
  <path class="cls-52" d="M315.61,155.83c1.51,1.27,2.96-.82,4.05-.82,2.14,0,6.26-.86,8.81,1.1-4.3,2.08-8.39.21-13.01,1.04-2.05-.03-1.96-1.34.15-1.32Z"/>
  <path class="cls-65" d="M126.91,155.79c1.81,1.27,3.45-.71,4.87-.78,2.24-.12,5.25-.91,7.74,1.29-5.19,1.62-9.61.25-14.77.75.22-1.59,1.39-1.16,2.16-1.26Z"/>
  <path class="cls-65" d="M402.91,155.78c1.81,1.27,3.45-.7,4.86-.78,2.23-.12,5.26-.9,7.74,1.29-5.19,1.62-9.61.25-14.76.75.22-1.59,1.39-1.16,2.16-1.26Z"/>
  <path class="cls-24" d="M130.75,140.01c-1.07.07-2.55-2.11-4.02-.91,2.91-2.17,7.42-1.13,11.69-.51-2.08,2.62-5.68,1.3-7.67,1.43Z"/>
  <path class="cls-24" d="M406.77,140.01c-1.08.04-2.58-2.08-4.04-.91,2.9-2.17,7.42-1.13,11.7-.51-2.12,2.58-5.62,1.35-7.65,1.43Z"/>
  <path class="cls-19" d="M326.77,139.01c-.11.87-1.44,1.21-4,1l-3.12.1c-.67-.39-1.34-1.25-2.37-1.13-.58.07-1.66.04-1.48,1.04-.7-.46-1.74-.62-2.06-1.95l12.06-.06c.77,0,1.07.53.97,1.01Z"/>
  <path class="cls-69" d="M169.77,139.01c-1.84,3.24-.79,9.73-1,13-.41-.19-1.19-.65-1.2-1.19-.02-3.64,1.08-7.55-.8-10.81-1.22-1.79,1.5-2.03,3-1Z"/>
  <path class="cls-54" d="M342.77,143.01c.58,2.16,1.23,9.84.24,11.46-.19.31-.67.45-1.24.54l.03-14.03c.48.56,1.1,1.23.97,2.03Z"/>
  <path class="cls-58" d="M343.77,155.01c.61,1.57-.79,1.94-2,1,.09-.28-.16-.76,0-1,2.35-3.56.38-8.02,1-12,.33.19.88.11,1.18.34l-.18,11.66Z"/>
  <path class="cls-55" d="M209.77,138.88c-.62.05-1.13.46-1,1.13h-3c-.58-.71-1.45-1.15-2.42-1.05-.61.06-1.72.1-1.58,1.05-1.94-.45-1.02-2.66.7-1.84,3.15-.87,5.28.12,7.3.71Z"/>
  <path class="cls-8" d="M154.77,155.01c1.11,2.11-2.03,2.07-1,0l-.02-12c.35.16.85.09,1.19.28-.27,3.9-.14,7.81-.17,11.72Z"/>
  <path class="cls-17" d="M235.77,138.84l-1,1.17c-.68-.09-1.41.16-2.09.1-.59-.65-1.39-1.09-2.4-1.14-.58-.03-1.68.02-1.44,1.04-1.76.2-2.53-.45-1.08-1.62,3.12-1.15,5.7-.31,8.01.45Z"/>
  <path class="cls-19" d="M324.55,150.51c-1.15-2.19-1-4.52.65-6.68.71,1.83,1.6,4.2-.65,6.68Z"/>
  <path class="cls-46" d="M386.77,139.01c.39.84.01,1.14-1,1-1.78-1.81-3.71-.21-6.52-.55,2.21-2.98,5.6-1.55,7.52-.45Z"/>
  <path class="cls-21" d="M267.77,139.01c.39.84.01,1.14-1,1-1.35,1.83-4.3,1.22-6.01.17l-.14-1.19c2.59-1.37,5.33-1.65,7.15.02Z"/>
  <path class="cls-49" d="M228.72,155.77c1.36.21,2.74.24,4.11.09.71-.01,1.73-.25,1.98,1.05-2.97.16-5.12.15-8.09,0,.23-1.29,1.28-1.05,1.99-1.15Z"/>
  <path class="cls-5" d="M154.77,155.01c.87.81,2.21.55,3.11,1.71-2.33.57-3.86.31-6.17.16.43-1.21,1.36-1.41,2.06-1.87-.04,1.17,1.04,1.17,1,0Z"/>
  <path class="cls-31" d="M267.92,156.04c-3.15,1.54-4.52.89-7.15.14l1-.34c1.39-2.44,4.11-2.6,6.15-.82v1.03Z"/>
  <path class="cls-17" d="M289.83,139.01c-1.44-.03-3.45-.51-4.1,1.12-.85-.47-1.22-.73-1.89-1.76,1.31-.35,5.27-1.35,6,.64Z"/>
  <path class="cls-11" d="M357.77,140.01c-1.14.94-2.14.6-3-1,.06-2.27,3.19-.57,5-.92-.32,1.27-1.28,1.47-2,1.92Z"/>
  <path class="cls-42" d="M136.35,150.08c-.53-.67-.89-1.97-1.52-2.67s1.09-2.49,1.61-2.21c.68,1.07.51,2.18-.09,4.88Z"/>
  <path class="cls-50" d="M299.95,143.99c-.99,1.33-1.37,1.86-1.18,2.46s-1.83,1.04-1.82.06c0-.53,1.34-1.38.87-2.8,0-1.14,1.94-1.11,2.14.27Z"/>
  <path class="cls-7" d="M380.77,157.01v-1.14c2.07.95,3.95-.92,6.54-.25-1.94,2.88-4.59.79-6.54,1.39Z"/>
  <path class="cls-67" d="M301.77,140.01c-.76.28-1.43.28-2,0-.83-.53-1.31-.79-1.57-1.03-.68-.65-.1-1.03.24-1,.62.05,1.71.05,2.49.02,1.95-.52,2.8,1.61.84,2.01Z"/>
  <path class="cls-17" d="M155.81,138.97c-1.18-.12-2.62-.08-3.11,1.18-.43-.41-1.1-.55-1.94-1.7,1.64-.96,3.67-.69,5.05.53Z"/>
  <path class="cls-17" d="M169.77,139.01c-1.09-.05-2.54-.22-3,1-.57-.23-1.13-.43-1.99-1.6,1.38-.48,4.29-1.26,4.99.6Z"/>
  <path class="cls-66" d="M326.77,139.01c-.17.81.48,1.75-.44,3.08-.83-1.43-2-2.49-3.56-2.08,1.05-1.08,2.57-1.18,4-1Z"/>
  <path class="cls-44" d="M301.77,140.01c-.48,1.03-.91,1.58-1.49,1.99-.52.36-1.85.02-1.19-.95.23-.35.52-.74.68-1.04-.14-.52.2-.89.53-1,.85-.3,1.65.21,1.47,1Z"/>
  <path class="cls-43" d="M357.77,140.01v1l-2,1c-.03-1.07-.49-2.09-1-3,1.09-.05,2.54-.22,3,1Z"/>
  <path class="cls-20" d="M412.16,150.05c-.43-1.75-1.59-2.42-1.43-3.95,1.9-.51,2.25.34,2.06,1.41-.17.99.44,2.02-.63,2.53Z"/>
  <path class="cls-19" d="M344.72,139.15c-1.32-.21-2.82-.24-3.7.9-2.14-.13-1.53-2.55.47-2.04,2.06-.52,2.56.48,3.23,1.14Z"/>
  <path class="cls-54" d="M341.77,156.01c.8.02,1.68-.19,2-1,.63.26,1.53.98.98,1.56-.83.86-1.91.27-3.27.52-2.17-.02-1.89-1.32.29-1.08Z"/>
  <path class="cls-41" d="M385.77,140.01c.3-.37.63-.7,1-1,.95.54,2-.54,2.03.53.02.55.12,1.56-1.03,1.5-1.01-.05-1.43-.94-2-1.03Z"/>
  <path class="cls-2" d="M269.77,140.01c-.15.75-.43,1.47-1,2-2.31,1.01-2.61.32-2-2,.3-.37.63-.7,1-1,.76.69,1.58.78,2,1Z"/>
  <path class="cls-35" d="M440.92,74.02c-.06-1.04,1.22-1.71,3.85-2.01,1.31-.09,2.68-.06,4,0,2.12.31,3.42,1,3.91,2.08-2.28,1.41-3.32,4.09-3.85,6.7-.88,13.96-.92,28.56-.04,42.2,0,.9-.71,1.48-1.53,1.43-.73-.05-1-.6-1.65-1.33l-34.88-39.4c-1.28,4.27-1.74,37.19,2.92,37.08-.29,2.72-9.8,2.61-10.71.22,2.7-1.32,3.56-4.98,3.57-7.98,1.1-10.57,1-22.19.15-33.15-.78-3.3-4.28-5.04-8.09-6.1.23-2.77,13.74-1.82,15.06-1.24,1.14.5,1.23,2.96,2.32,4.28l5.04,6.14c2.93,3.56,5.79,6.53,8.79,10.13s7.2,5.29,9.17,9.83c1.02,2.37,3.7,3.97,6.05,4.67.28-9.52.29-17.74-.18-26.59-.17-3.17-1.4-5.65-3.94-6.95Z"/>
  <path class="cls-35" d="M251.77,71.01c1.93.83,4.07.84,6,0,2.09,0,3.44,1.11,5.27,1.29,2.31.23,4.81-.53,6.73.65l1,5.06c-.24,2.47,1.63,5.02-1.03,8.05-2.25-5.5-4.63-9.66-9.77-11.23-6.38-1.96-12.57-.84-18.27,3.16-4.2,2.95-5.7,8.57-7.82,13.91-.76,3.06-.84,6.25-.06,9.31,2.32,6.31,3.8,13.26,9.64,16.79,8.36,5.05,19.05,4.4,24.59-3.41,1.34-1.88,1.65-4.54,4.94-3.37-1.15,3.06-1.02,7.77-3.97,9.98-2.47,1.85-6.47,2.82-9.25,2.82-3.6-.87-7.4-.87-11,0-8.27-1.27-15.96-4.29-20.72-11.27-6.84-10.02-5.88-24.06,2.57-32.83,5.76-5.98,13.52-8.91,21.15-8.91Z"/>
  <path class="cls-35" d="M194.59,74.06c-8.4,3.22-12.94,10.05-14.76,18.72-.83,2.74-.8,5.63.04,8.37,2.09,5.88,3.12,13.22,9.24,16.6l6.23,3.44c19.68,1.43,18.56-10.21,21.9-10.26,3.8-.05-2.08,10.49-1.55,9.74-2.06,2.9-6.33,1.99-8.92,2.63-4.06,0-8.06.24-12,.7-12.4-1.26-23.31-9.44-24.86-22,.53-2.64.57-5.38-.14-8,1.64-11.03,10.06-19.51,20.93-21.7,2.88-.21,4.17.38,3.88,1.76Z"/>
  <path class="cls-47" d="M55.77,72.01c2.51.14,3.85.83,4,2.07-3.22.26-5.04,1.87-5.04,4.89v35.05c-.01,2.91,1.4,4.32,3,5.87,4.56,1.03,9.52,1.07,14.08-.04,6.3-5.93,5.15-7.98,7.32-6.59,1.36.87-1.19,7.77-2.27,8.75-2.21.7-5.13,1.04-7.1,0-8.42.83-17.67.79-26,0-1.48.83-1.97.29-.83-1.06,1.37-.87,1.98-2.05,2.8-2.77.85-13.76.87-27.58-.02-41.34l-2.91-2.72c-.25-1.2,1.07-1.91,3.97-2.11h9Z"/>
  <path class="cls-1" d="M290.77,72.01c3.12.19,4.45.91,3.97,2.17-1.66,1.5-2.2,3.59-2.2,5.8v35.07c0,2.01.35,3.9,1.48,5.1,1.21,1.28,3.97-.72,5.32,2.75-7.75.04-15.1.9-22.49-.56,2.35-2.29,6.09-1.59,6.73-4.28,1.06-13.53,1.3-27.83-.04-41.04l-2.62-2.92c-.14-1.08,1.14-1.77,3.86-2.08,1.99.01,4.01-.11,6,0Z"/>
  <path class="cls-23" d="M76.02,86.97c1.61-2.63,5.64-4.03,5.25-7.81-.31-2.92-3.68-3.33-5.74-4.78-1.47-1.03-.76-3.28.1-4.06,1.09-.98,3.15-1.98,5.18-.95,1.42.72,3.64,2.57,4.43,4.38,2.45,5.62-1.89,13.69-9.22,13.22Z"/>
  <path class="cls-51" d="M208.77,71.82c.34.94,1.68,1.08,4,.43.89.43,3.58.28,3.57,1.81-.04,4.14,2.78,7.89-.98,12.33-.3-9.8-11.99-13.34-17.59-12.36-.91-1.66.44-2.25,4.07-1.76-.21-.56.43-.98,1.93-1.27,1.76,0,3.38.15,5,.82Z"/>
  <path class="cls-42" d="M45.74,118.18l-.02-41.34c1.78,13.31,1.74,27.99.02,41.34Z"/>
  <path class="cls-57" d="M448.84,80.79l-.04,42.2c-.24.27-1.27-.4-1.22-1.1,1.14-14.15-1.35-28.13,1.26-41.1Z"/>
  <path class="cls-59" d="M283.58,118.05c.29-13.67.37-27.37-.04-41.04.34.38,1.63.79,1.5,1.97-1.44,13.19,1.55,26.34-1.46,39.07Z"/>
  <path class="cls-26" d="M406.54,113.01l.15-33.15c2.61,11.11.27,23.34,1.13,35.12-1.72-.44-.88-1.54-1.28-1.97Z"/>
  <path class="cls-12" d="M402.96,120.99c3.23,1.6,7.66,1.81,10.71-.22,1.34.54,3.57-1.06,4.63,1.95-6.54.52-12.51.39-18.89.07.41-3.07,2.59-1.32,3.56-1.79Z"/>
  <path class="cls-20" d="M69.77,122.01c.87.28.86.62,0,1h-26c-.87-.28-.86-.62,0-1h26Z"/>
  <path class="cls-42" d="M198.77,71.01c1.24.23,2.27.66,3.07,1.27-1.31.76-3.04.51-4.07,1.76-.79.14-2.52.47-3.18.03-1.18-.78-2.8-.84-3.88-1.76,2.68-.54,5.29-1.3,8.07-1.3Z"/>
  <path class="cls-29" d="M71.81,119.85c-2.03,1.91-12.32,1.77-14.08.04,4.69.15,9.39.2,14.08-.04Z"/>
  <path class="cls-25" d="M284.77,72.01c-1.01,1.12-2.56,1.39-3.86,2.08-2.37.02-4.58.59-4.19-2.01,3-.14,5.56-.09,8.04-.07Z"/>
  <path class="cls-38" d="M206.77,123.31c-3.8.94-8.03,1.1-12,.7-1.57-1.71,11.58-.95,12-.7Z"/>
  <path class="cls-25" d="M294.75,74.17c-.77-1.65-2.97-.81-3.97-2.17,2.71.15,5.41-.53,8.49.52-.93,2.77-3.39.96-4.52,1.64Z"/>
  <path class="cls-25" d="M46.77,72.01c-.99,1.36-3.16.54-3.97,2.11-2.31,0-4.48.53-4.07-2.04l8.03-.07Z"/>
  <path class="cls-35" d="M312.77,72.01c11.65.84,23.35.83,35,0,1.64-.24,3.73-.94,5.26-1.72,1.72,1.61-.06,3.46-.2,4.53l-.54.72c.45,4.22-.14,5.71-1.76,4.47-1.06-2.13-3.12-3.26-4.72-4.82-3.86-.94-8.13-1.12-12.02-.14-.32,1.04-.69,2.36-.69,3.92l.07,35.82c0,2.51.8,4.82,2.44,6.14-2.37,2.55-11.34,2.44-13.7-.14,1.52-1.26,2.55-3.7,2.62-5.78,1.04-11.86,1.34-26.41.01-39-.28-.11-.65-.61-.79-.88-3.85-1.13-8.17-.98-12.03.07l-7.6,6.52c-.6-4.58,1.64-7.58,2.29-11.74,2.29,1.96,4.24,1.72,6.34,2.03Z"/>
  <path class="cls-12" d="M324.55,115.01c.41-12.99.33-26.01.01-39,1.04.4,1.31,1.42,1.3,2.92l-.26,38.06c-1.34-.58-.7-1.55-1.06-1.97Z"/>
  <path class="cls-12" d="M321.93,120.78c4.74,1.76,9.59,1.79,13.7.14,1.8-.72,4.95-.46,5.65,1.8-8.52.49-16.46.42-25.09.04,1.41-3.31,4.1-1.24,5.74-1.98Z"/>
  <path class="cls-33" d="M347.77,72.01c-11.35,1.67-23.64,1.67-35,0h35Z"/>
  <path class="cls-61" d="M323.77,75.12c-4.01-.14-8.03-.22-12.03.07,2.38-2.05,11.16-1.74,12.03-.07Z"/>
  <path class="cls-12" d="M352.84,74.81c.14-1.09.21,15.03-2.1,7.69-.22-.7.14-1.8-.2-2.5,1.68-.07,1.31-2.31,1.23-3.97-.27-1.31.45-2.82,1.07-1.22Z"/>
  <path class="cls-14" d="M345.81,75.19l-12.02-.14c.49-1.57,9.97-1.86,12.02.14Z"/>
  <path class="cls-38" d="M259.77,124.01h-11c3-1.73,8-1.73,11,0Z"/>
  <path class="cls-42" d="M452.68,74.08c-1.32-.68-2.89-.94-3.91-2.08,15.75.76,3.5,2.34,3.91,2.08Z"/>
  <path class="cls-42" d="M444.77,72.01c-.99,1.13-2.53,1.39-3.85,2.01-.93-.48-2.95,1.13-3.56-1.5,2.64-1.03,5.05-.35,7.41-.51Z"/>
  <path class="cls-42" d="M233.89,91.89l-.06,9.31c-1.63-3.08-1.45-6.31.06-9.31Z"/>
  <path class="cls-57" d="M42.94,120.95c.37.27.66.63.83,1.06v1c-1.88,0-4.82.57-5.01-.87.11-2.3,3.23-.59,4.18-1.18Z"/>
  <path class="cls-12" d="M179.83,92.79l.04,8.37c-1.65-2.25-1.73-6.09-.04-8.37Z"/>
  <path class="cls-25" d="M465.77,72.01v1c-.65.05-1.25.84-1.85,1.08-.87-.46-2.87.94-3.58-1.45,1.93-1.05,3.74-.66,5.43-.62Z"/>
  <path class="cls-42" d="M169.92,102.01c-.3-2.48-.51-5.53-.14-8,1.8,1.96,1.55,5.85.14,8Z"/>
  <path class="cls-38" d="M76.87,122.01c-2.05,1.85-4.87,1-7.1,1v-1h7.1Z"/>
  <path class="cls-38" d="M208.77,71.82c1.04.43,3.01-.05,4,.43-1.36,1.31-3.69.89-6.04.48.52-1.05,1.36-.62,2.04-.91Z"/>
  <path class="cls-27" d="M59.77,74.07l-4-2.07c1.49,0,3.02-.06,4.93.04.33,1.28.07,1.95-.93,2.03Z"/>
  <path class="cls-41" d="M257.77,71.01c-1.25,1.68-4.75,1.68-6,0h6Z"/>
  <path class="cls-9" d="M270.77,78.01c-1.74-.96-.86-3.38-1-5.06,1.76,1.08,1.13,3.69,1,5.06Z"/>
  <path class="cls-53" d="M203.77,71.01c-.29.93-1.26.88-1.93,1.27-1.13-.1-2.48-.16-3.07-1.27h5Z"/>
  <path class="cls-29" d="M358.77,123.01v-2.18c1.03.3,2.29-.36,3.44,1.08-.93,1.66-2.39,1.15-3.44,1.1Z"/>
  <path class="cls-35" d="M393.77,120.8c.72.66,1.27,1.18,1.19,1.21-2.8,1.07-11.16.72-14.25.1-.06-.01.02-.52.14-1.18.66-.67.97-2.32.54-3.52l-4.69-13.22c-4.47-1.1-10.44-1.24-14.81-.02l-4.31,12.75c-.49,1.46-.23,2.77.25,3.83.93,2.4-6.45,2.31-8.25,1.4-.13-.07-.01-.64.18-1.36,1.57-1.68,2.88-3.6,3.85-6.13l13.69-35.81c1.4-3.65,3.2-6.89,7.68-7.63l15.43,45.12c.7,2.04,2.22,3.18,3.36,4.45Z"/>
  <path class="cls-34" d="M380.85,120.93c-.51,1.44,15.4,1.8,12.92-.13,1.31.49,3.53-1.07,4.5,1.95-7.19.46-13.82.37-20.85.05.39-2.92,2.45-1.47,3.43-1.86Z"/>
  <path class="cls-12" d="M349.77,120.8c1.69,2.3,6.09,1.83,8.07-.04.3.05.63-.01.93.07,2.24.36,2.23,1.65,0,2.18-4.37-.22-8.69.49-13.47-.4.92-2.76,3.14-1.37,4.47-1.81Z"/>
  <path class="cls-42" d="M376.71,104.19c-4.93-.28-9.88-.29-14.81-.02.26-.78.43-1.3,1.75-1.26,5.89.21,12.33-.79,13.06,1.27Z"/>
  <path class="cls-62" d="M374.87,100.92c-3.1.99-7.8.88-11.02-.06,1.45-6.28,2.79-11.9,6.03-17.15,1.75,6.36,5.51,11.49,4.98,17.2Z"/>
  <path class="cls-59" d="M374.87,100.92c6.52,1.41-15.12,1.77-11.02-.06l11.02.06Z"/>
  <path class="cls-35" d="M489.77,75.24c-4-1.24-9.97-1.26-13.85-.05l-.15,19.69c3.78,1.17,8.22.98,12.02-.05,2.98-4.42,1.94-5.94,3.46-6.06.89-.07,1.51.37,1.51,1.24-.37,4.97-.68,9.97-.91,15.01-4-.47.87-1.47-4.95-6.93-3.56-.79-7.7-1.25-11.09.14-.61,4.3-.65,12.86-.13,17.5.29,2.63,2.09,3.05,3.03,4.22,4.58,1.03,9.47.76,14.08-.07,3.49-1.96,5.3-4.5,8.2-8.99,2.06,4.75-.53,8.59-2.28,11.94-11.54-.24-23.11-.52-34.72-.82l-.06-1.04c.8-1.09,2.57-2.31,2.77-3.77.88-13.1.89-26.26-.01-39.35-.28-1.32-1.91-2.8-2.78-3.76-.99-1.49.5-1.85,1.85-1.08,9.88-.5,19.85-.72,29.9-.66,1.37,3.11,2.21,7.05,1.01,11.36-3.03-3.36-3.55-7.12-6.91-8.47Z"/>
  <path class="cls-20" d="M463.94,120.96c.65.11,1.59,1.07,2.83,1.07h30.88c.72,0,1.36.2,1.08.79l-40.49.03c1.19-3.36,4.1-1.49,5.71-1.89Z"/>
  <path class="cls-59" d="M466.72,117.2v-39.35c1.78,12.66,1.75,26.66,0,39.35Z"/>
  <path class="cls-63" d="M495.67,72.35c-9.8,1.58-19.92.19-29.9.66-.87-.28-.86-.62,0-1,9.97.22,19.96-.46,29.9.34Z"/>
  <path class="cls-56" d="M491.86,105.01l-.11-13.06c0-1.03.24-2.02,1.02-1.95l.03,14.05c0,.84-.54,1.01-.94.96Z"/>
  <path class="cls-25" d="M492.8,119.87c-3.38,1.9-12.78,1.69-14.08.07l14.08-.07Z"/>
  <path class="cls-61" d="M489.77,75.24c-4.61-.36-9.24-.33-13.85-.05,0-.42-.15-1.2.76-1.21l11.16-.06c1.13,0,1.6.88,1.93,1.32Z"/>
  <path class="cls-57" d="M486.92,98.08c-3.7-.05-7.4-.2-11.09.14.28-2,9.28-1.83,11.09-.14Z"/>
  <path class="cls-42" d="M487.8,94.83c-1.3,1.92-12.03,1.81-12.02.05,4.01.15,8.02.21,12.02-.05Z"/>
  <path class="cls-15" d="M474.28,94.07c-.82-5.86-.91-11.72.03-18.18.79,5.86.79,11.69-.03,18.18Z"/>
  <path class="cls-18" d="M124.77,61.01c.31-.09.68,0,1,0,1.52-.84,3.48-.85,5,.02,7.29.02,13.59,4.85,17.49,11.4,3.32,5.58,4.12,11.62,5.32,17.58.95,2.22.99,4.96.15,8.21-1.93,8.7-5.17,16.84-13.03,21.73-3.84,2.39-9.8.82-13.92,2.13-19.4-4.76-25.32-26.57-20.97-44.07,2.04-8.2,7.89-13.36,14.96-16.73,1.13-.54,2.81.08,4-.27Z"/>
  <path class="cls-35" d="M120.77,61.27l-.56,2.52c-21.5,10.39-16.98,48.8,5.22,55.82l1.35,2.46c-.28,1.39-1.95,2.03-5.01,1.93-17.97-3.26-29.73-19.81-26.47-38.3,2.35-13.33,11.78-23.45,24.47-26.7,1.92.3,2.78,1.04,1,2.27Z"/>
  <path class="cls-35" d="M124.77,58.01c3.35.35,6.68.69,10,1,7.2-1.13,13.31,3.45,18.47,8.56,3.64,3.61,7.15,6.66,7.78,12.39.22,2.05,1.94,4.13,1.75,6.05-1.01,3.28-.64,6.68,0,10-1.81,11.58-9.07,21.51-19.95,25.85-2.67.48-3.38-.16-2.12-1.91l.33-2.63c5.81-4.24,8.72-11.03,10.35-17.84l2.35-1.25c.53-2.85.7-5.68.5-8.49l-.65.28-2.31-1.41c-1.49-11.28-6.76-23.73-19.18-25.51l-1.31-2.06c-1.62-.83-3.36-.82-5-.02-.19.87-.53.83-1,0-1.95-.21-2.61-.88-2-2,.2-.91,1.21-1,2-1Z"/>
  <path class="cls-4" d="M140.7,119.95c.61.74,1.32,1.38,2.12,1.91-6.62,2.64-13.92,3.45-21.05,2.15,1.41-.99,3.36-1.41,5.01-1.93.02-.49.06-.97.18-1.44.17-.67,10.87-2.18,12.01-2.03l1.73,1.34Z"/>
  <path class="cls-57" d="M134.77,59.01c.92-.15-11.89.63-10-1h8.06c1.05-.01,2.02.2,1.94,1Z"/>
  <path class="cls-25" d="M162.77,96.01c-1.73-2.65-1.73-7.35,0-10-.33,3.27.51,6.75,0,10Z"/>
  <path class="cls-57" d="M122.77,59.01c.75.39,1.31,1.48,2,2-.53,2.94-2.95,2.79-4,.27l-1-2.27c.84-.22,2.15-.02,3,0Z"/>
  <path class="cls-12" d="M153.73,98.22c-.23-2.69.39-5.54-.15-8.21.31-.68-.06-1.63.86-2.09,1.27,4.13-.06,7.39-.71,10.3Z"/>
  <path class="cls-68" d="M130.77,61.02l-5-.02c.86-1.64,4.16-1.65,5,.02Z"/>
  <path class="cls-64" d="M266.77,140.01c.93.35,1.65,1.07,2,2,1.68,4.3,2.06,9.26-.85,13.01-1.84,1.12-4.05,1.06-6.15.82-4.31-4.2-5.68-11.55-1.01-15.65,1.68-1.58,4.18-1.48,6.01-.17Z"/>
  <path class="cls-42" d="M205.77,140.01v15c1.43,2.18-4.66,2.3-3,0-.69-4.98,1.4-10.43-1-15-1.25-2.16,4.95-2.34,4,0Z"/>
  <path class="cls-37" d="M205.77,155.01c.7.24,1.49.99.98,1.55-.68.74-5.24.66-5.91.04-.31-.29,1.72-1.53,1.93-1.6-.15.93.8,1.06,1.5,1.06s1.65-.13,1.5-1.06Z"/>
  <path class="cls-39" d="M204.29,155.1c-.88-4.88-.84-9.76-.04-15.19.88,4.88.84,9.76.04,15.19Z"/>
</svg>