<?xml version="1.0" encoding="UTF-8"?>
<svg id="Layer_1" data-name="Layer 1" xmlns="http://www.w3.org/2000/svg" viewBox="0 0 394.25 82.5">
  <defs>
    <style>
      .cls-1 {
        fill: #fff;
      }
    </style>
  </defs>
  <path d="M146.46,65.24c-12.44,10.55-30.76,10.64-43.43,1.18-8.36-6.25-12.01-15.72-10.92-26.01.93-8.77,6.23-17.5,15.1-22.2,10.47-5.54,23.12-5.54,33.54.05,8.29,4.44,13.58,12.48,14.84,20.36,1.63,10.15-1.05,19.76-9.14,26.62ZM148,43.69c0-13.25-10.74-23.99-23.99-23.99s-23.99,10.74-23.99,23.99,10.74,23.99,23.99,23.99,23.99-10.74,23.99-23.99Z"/>
  <path d="M204.85,68.79l-14.09-19.13-19.19-.08-.06,19.37c-2,.21-4.9.17-6.96-.14V22.18s31.98.04,31.98.04c7.77,0,13.65,5.68,14.24,12.81s-4.48,12.23-11.55,14.88l13.45,18.59c-.7.61-6.83,1.64-7.83.29ZM195.6,43.77c5.09-.02,8.28-4.02,8.1-8.6-.14-3.67-3.51-7.39-8.15-7.41l-24.02-.12.03,16.22,24.03-.09Z"/>
  <path d="M310.22,57.01l-28.45-.03-5.86,11.04c-1.02,1.93-6.52,1.51-8.15.56l23.11-45.75c2.89-.77,6.48-.8,9.87-.28l23.17,45.58c-1.12,1.42-6.88,1.9-7.83.07l-5.86-11.19ZM307.06,50.96l-11.12-22.42-11.17,22.43h22.29Z"/>
  <path d="M255.33,47.64l-26.09.08-.07,16.31,33.38.12c1.67,0,1.58,4.7.3,5.16l-40.9-.04-.06-47.03,40.93-.08c1.44,0,1.46,5.06-.04,5.06l-33.58.09.08,15.1,26.17.1-.13,5.14Z"/>
  <path d="M85.43,64.16c1.83.01,1.78,4.41.38,5.13l-41.22.02-.06-46.6c1.78-.36,4.22-.38,6.37-.12l.09,41.38,34.45.19Z"/>
  <path d="M369.38,64.16c1.23,0,1.35,4.25.74,5.14l-41.94-.04V22.61c2.14-.25,4.6-.24,6.41.04l.09,41.35,34.7.17Z"/>
  <path d="M80.4,37.66c-.64,1.24-4.58,1.39-5.08.06l5.69-14.53c.89-1.24,4.84-1.12,7.12-.44l-7.73,14.91Z"/>
  <path d="M253.69,15.26l-13.84,4.89c.8-5.03,6.12-7.18,13.84-4.89Z"/>
  <circle class="cls-1" cx="124.01" cy="43.69" r="23.99"/>
  <path class="cls-1" d="M195.6,43.77l-24.03.09-.03-16.22,24.02.12c4.63.02,8,3.74,8.15,7.41.18,4.57-3.01,8.58-8.1,8.6Z"/>
  <polygon class="cls-1" points="307.06 50.96 284.76 50.96 295.93 28.54 307.06 50.96"/>
</svg>